<svg width="204" height="201" viewBox="0 0 204 201" fill="none" xmlns="http://www.w3.org/2000/svg">
<g filter="url(#filter0_d)">
<ellipse cx="101.5" cy="70.5" rx="37.5" ry="35.5" fill="white"/>
</g>
<path d="M175.5 74.5C175.5 114.218 142.64 146.5 102 146.5C61.3599 146.5 28.5 114.218 28.5 74.5C28.5 34.7822 61.3599 2.5 102 2.5C142.64 2.5 175.5 34.7822 175.5 74.5Z" stroke="#FC8F52" stroke-width="5"/>
<rect y="110" width="204" height="91" fill="white"/>
<path d="M24.333 137L22.7334 132.913H17.583L16.001 137H14.4893L19.5693 124.098H20.8262L25.8799 137H24.333ZM22.2676 131.568L20.7734 127.587C20.5801 127.083 20.3809 126.465 20.1758 125.732C20.0469 126.295 19.8623 126.913 19.6221 127.587L18.1104 131.568H22.2676ZM31.8213 127.191C32.249 127.191 32.6328 127.227 32.9727 127.297L32.7705 128.65C32.3721 128.562 32.0205 128.519 31.7158 128.519C30.9365 128.519 30.2686 128.835 29.7119 129.468C29.1611 130.101 28.8857 130.889 28.8857 131.832V137H27.4268V127.367H28.6309L28.7979 129.151H28.8682C29.2256 128.524 29.6562 128.041 30.1602 127.701C30.6641 127.361 31.2178 127.191 31.8213 127.191ZM37.8857 135.972C38.1436 135.972 38.3926 135.954 38.6328 135.919C38.873 135.878 39.0635 135.837 39.2041 135.796V136.912C39.0459 136.988 38.8115 137.05 38.501 137.097C38.1963 137.149 37.9209 137.176 37.6748 137.176C35.8115 137.176 34.8799 136.194 34.8799 134.231V128.501H33.5V127.798L34.8799 127.191L35.4951 125.135H36.3389V127.367H39.1338V128.501H36.3389V134.17C36.3389 134.75 36.4766 135.195 36.752 135.506C37.0273 135.816 37.4053 135.972 37.8857 135.972ZM42.5967 137H41.1377V127.367H42.5967V137ZM41.0146 124.757C41.0146 124.423 41.0967 124.18 41.2607 124.027C41.4248 123.869 41.6299 123.79 41.876 123.79C42.1104 123.79 42.3125 123.869 42.4824 124.027C42.6523 124.186 42.7373 124.429 42.7373 124.757C42.7373 125.085 42.6523 125.331 42.4824 125.495C42.3125 125.653 42.1104 125.732 41.876 125.732C41.6299 125.732 41.4248 125.653 41.2607 125.495C41.0967 125.331 41.0146 125.085 41.0146 124.757ZM50.0322 128.501H47.5801V137H46.1211V128.501H44.3984V127.842L46.1211 127.314V126.778C46.1211 124.411 47.1553 123.228 49.2236 123.228C49.7334 123.228 50.3311 123.33 51.0166 123.535L50.6387 124.704C50.0762 124.522 49.5957 124.432 49.1973 124.432C48.6465 124.432 48.2393 124.616 47.9756 124.985C47.7119 125.349 47.5801 125.935 47.5801 126.743V127.367H50.0322V128.501ZM53.249 137H51.79V127.367H53.249V137ZM51.667 124.757C51.667 124.423 51.749 124.18 51.9131 124.027C52.0771 123.869 52.2822 123.79 52.5283 123.79C52.7627 123.79 52.9648 123.869 53.1348 124.027C53.3047 124.186 53.3896 124.429 53.3896 124.757C53.3896 125.085 53.3047 125.331 53.1348 125.495C52.9648 125.653 52.7627 125.732 52.5283 125.732C52.2822 125.732 52.0771 125.653 51.9131 125.495C51.749 125.331 51.667 125.085 51.667 124.757ZM60.1924 137.176C58.7979 137.176 57.7168 136.748 56.9492 135.893C56.1875 135.031 55.8066 133.815 55.8066 132.245C55.8066 130.634 56.1934 129.389 56.9668 128.51C57.7461 127.631 58.8535 127.191 60.2891 127.191C60.752 127.191 61.2148 127.241 61.6777 127.341C62.1406 127.44 62.5039 127.558 62.7676 127.692L62.3193 128.932C61.9971 128.803 61.6455 128.697 61.2646 128.615C60.8838 128.527 60.5469 128.483 60.2539 128.483C58.2969 128.483 57.3184 129.731 57.3184 132.228C57.3184 133.411 57.5557 134.319 58.0303 134.952C58.5107 135.585 59.2197 135.901 60.1572 135.901C60.96 135.901 61.7832 135.729 62.627 135.383V136.675C61.9824 137.009 61.1709 137.176 60.1924 137.176ZM66.3799 137H64.9209V127.367H66.3799V137ZM64.7979 124.757C64.7979 124.423 64.8799 124.18 65.0439 124.027C65.208 123.869 65.4131 123.79 65.6592 123.79C65.8936 123.79 66.0957 123.869 66.2656 124.027C66.4355 124.186 66.5205 124.429 66.5205 124.757C66.5205 125.085 66.4355 125.331 66.2656 125.495C66.0957 125.653 65.8936 125.732 65.6592 125.732C65.4131 125.732 65.208 125.653 65.0439 125.495C64.8799 125.331 64.7979 125.085 64.7979 124.757ZM75.3975 137L75.1074 135.629H75.0371C74.5566 136.232 74.0762 136.643 73.5957 136.859C73.1211 137.07 72.5264 137.176 71.8115 137.176C70.8564 137.176 70.1064 136.93 69.5615 136.438C69.0225 135.945 68.7529 135.245 68.7529 134.337C68.7529 132.392 70.3086 131.372 73.4199 131.278L75.0547 131.226V130.628C75.0547 129.872 74.8906 129.315 74.5625 128.958C74.2402 128.595 73.7217 128.413 73.0068 128.413C72.2041 128.413 71.2959 128.659 70.2822 129.151L69.834 128.035C70.3086 127.777 70.8271 127.575 71.3896 127.429C71.958 127.282 72.5264 127.209 73.0947 127.209C74.2432 127.209 75.0928 127.464 75.6436 127.974C76.2002 128.483 76.4785 129.301 76.4785 130.426V137H75.3975ZM72.1016 135.972C73.0098 135.972 73.7217 135.723 74.2373 135.225C74.7588 134.727 75.0195 134.029 75.0195 133.133V132.263L73.5605 132.324C72.4004 132.365 71.5625 132.547 71.0469 132.869C70.5371 133.186 70.2822 133.681 70.2822 134.354C70.2822 134.882 70.4404 135.283 70.7568 135.559C71.0791 135.834 71.5273 135.972 72.1016 135.972ZM80.9521 137H79.4932V123.324H80.9521V137ZM88.9414 137V124.15H90.4355V137H88.9414ZM100.341 137V130.769C100.341 129.983 100.162 129.397 99.8047 129.011C99.4473 128.624 98.8877 128.431 98.126 128.431C97.1182 128.431 96.3799 128.703 95.9111 129.248C95.4424 129.793 95.208 130.692 95.208 131.946V137H93.749V127.367H94.9355L95.1729 128.686H95.2432C95.542 128.211 95.9609 127.845 96.5 127.587C97.0391 127.323 97.6396 127.191 98.3018 127.191C99.4619 127.191 100.335 127.473 100.921 128.035C101.507 128.592 101.8 129.485 101.8 130.716V137H100.341ZM107.917 135.972C108.175 135.972 108.424 135.954 108.664 135.919C108.904 135.878 109.095 135.837 109.235 135.796V136.912C109.077 136.988 108.843 137.05 108.532 137.097C108.228 137.149 107.952 137.176 107.706 137.176C105.843 137.176 104.911 136.194 104.911 134.231V128.501H103.531V127.798L104.911 127.191L105.526 125.135H106.37V127.367H109.165V128.501H106.37V134.17C106.37 134.75 106.508 135.195 106.783 135.506C107.059 135.816 107.437 135.972 107.917 135.972ZM115.238 137.176C113.814 137.176 112.689 136.742 111.863 135.875C111.043 135.008 110.633 133.804 110.633 132.263C110.633 130.71 111.014 129.477 111.775 128.562C112.543 127.648 113.571 127.191 114.86 127.191C116.067 127.191 117.022 127.59 117.726 128.387C118.429 129.178 118.78 130.224 118.78 131.524V132.447H112.145C112.174 133.578 112.458 134.437 112.997 135.022C113.542 135.608 114.307 135.901 115.291 135.901C116.328 135.901 117.354 135.685 118.367 135.251V136.552C117.852 136.774 117.362 136.933 116.899 137.026C116.442 137.126 115.889 137.176 115.238 137.176ZM114.843 128.413C114.069 128.413 113.451 128.665 112.988 129.169C112.531 129.673 112.262 130.37 112.18 131.261H117.216C117.216 130.341 117.011 129.638 116.601 129.151C116.19 128.659 115.604 128.413 114.843 128.413ZM122.735 137H121.276V123.324H122.735V137ZM127.288 137H125.829V123.324H127.288V137ZM131.841 137H130.382V127.367H131.841V137ZM130.259 124.757C130.259 124.423 130.341 124.18 130.505 124.027C130.669 123.869 130.874 123.79 131.12 123.79C131.354 123.79 131.557 123.869 131.727 124.027C131.896 124.186 131.981 124.429 131.981 124.757C131.981 125.085 131.896 125.331 131.727 125.495C131.557 125.653 131.354 125.732 131.12 125.732C130.874 125.732 130.669 125.653 130.505 125.495C130.341 125.331 130.259 125.085 130.259 124.757ZM142.818 127.367V128.29L141.034 128.501C141.198 128.706 141.345 128.976 141.474 129.31C141.603 129.638 141.667 130.01 141.667 130.426C141.667 131.369 141.345 132.122 140.7 132.685C140.056 133.247 139.171 133.528 138.046 133.528C137.759 133.528 137.489 133.505 137.237 133.458C136.616 133.786 136.306 134.199 136.306 134.697C136.306 134.961 136.414 135.157 136.631 135.286C136.848 135.409 137.22 135.471 137.747 135.471H139.452C140.495 135.471 141.295 135.69 141.852 136.13C142.414 136.569 142.695 137.208 142.695 138.046C142.695 139.112 142.268 139.924 141.412 140.48C140.557 141.043 139.309 141.324 137.668 141.324C136.408 141.324 135.436 141.09 134.75 140.621C134.07 140.152 133.73 139.49 133.73 138.635C133.73 138.049 133.918 137.542 134.293 137.114C134.668 136.687 135.195 136.396 135.875 136.244C135.629 136.133 135.421 135.96 135.251 135.726C135.087 135.491 135.005 135.219 135.005 134.908C135.005 134.557 135.099 134.249 135.286 133.985C135.474 133.722 135.77 133.467 136.174 133.221C135.676 133.016 135.269 132.667 134.952 132.175C134.642 131.683 134.486 131.12 134.486 130.487C134.486 129.433 134.803 128.621 135.436 128.053C136.068 127.479 136.965 127.191 138.125 127.191C138.629 127.191 139.083 127.25 139.487 127.367H142.818ZM135.137 138.617C135.137 139.139 135.356 139.534 135.796 139.804C136.235 140.073 136.865 140.208 137.686 140.208C138.91 140.208 139.815 140.023 140.401 139.654C140.993 139.291 141.289 138.796 141.289 138.169C141.289 137.647 141.128 137.284 140.806 137.079C140.483 136.88 139.877 136.78 138.986 136.78H137.237C136.575 136.78 136.06 136.938 135.69 137.255C135.321 137.571 135.137 138.025 135.137 138.617ZM135.928 130.452C135.928 131.126 136.118 131.636 136.499 131.981C136.88 132.327 137.41 132.5 138.09 132.5C139.514 132.5 140.226 131.809 140.226 130.426C140.226 128.979 139.505 128.255 138.063 128.255C137.378 128.255 136.851 128.439 136.481 128.809C136.112 129.178 135.928 129.726 135.928 130.452ZM148.865 137.176C147.441 137.176 146.316 136.742 145.49 135.875C144.67 135.008 144.26 133.804 144.26 132.263C144.26 130.71 144.641 129.477 145.402 128.562C146.17 127.648 147.198 127.191 148.487 127.191C149.694 127.191 150.649 127.59 151.353 128.387C152.056 129.178 152.407 130.224 152.407 131.524V132.447H145.771C145.801 133.578 146.085 134.437 146.624 135.022C147.169 135.608 147.934 135.901 148.918 135.901C149.955 135.901 150.98 135.685 151.994 135.251V136.552C151.479 136.774 150.989 136.933 150.526 137.026C150.069 137.126 149.516 137.176 148.865 137.176ZM148.47 128.413C147.696 128.413 147.078 128.665 146.615 129.169C146.158 129.673 145.889 130.37 145.807 131.261H150.843C150.843 130.341 150.638 129.638 150.228 129.151C149.817 128.659 149.231 128.413 148.47 128.413ZM161.495 137V130.769C161.495 129.983 161.316 129.397 160.959 129.011C160.602 128.624 160.042 128.431 159.28 128.431C158.272 128.431 157.534 128.703 157.065 129.248C156.597 129.793 156.362 130.692 156.362 131.946V137H154.903V127.367H156.09L156.327 128.686H156.397C156.696 128.211 157.115 127.845 157.654 127.587C158.193 127.323 158.794 127.191 159.456 127.191C160.616 127.191 161.489 127.473 162.075 128.035C162.661 128.592 162.954 129.485 162.954 130.716V137H161.495ZM169.81 137.176C168.415 137.176 167.334 136.748 166.566 135.893C165.805 135.031 165.424 133.815 165.424 132.245C165.424 130.634 165.811 129.389 166.584 128.51C167.363 127.631 168.471 127.191 169.906 127.191C170.369 127.191 170.832 127.241 171.295 127.341C171.758 127.44 172.121 127.558 172.385 127.692L171.937 128.932C171.614 128.803 171.263 128.697 170.882 128.615C170.501 128.527 170.164 128.483 169.871 128.483C167.914 128.483 166.936 129.731 166.936 132.228C166.936 133.411 167.173 134.319 167.647 134.952C168.128 135.585 168.837 135.901 169.774 135.901C170.577 135.901 171.4 135.729 172.244 135.383V136.675C171.6 137.009 170.788 137.176 169.81 137.176ZM178.607 137.176C177.184 137.176 176.059 136.742 175.232 135.875C174.412 135.008 174.002 133.804 174.002 132.263C174.002 130.71 174.383 129.477 175.145 128.562C175.912 127.648 176.94 127.191 178.229 127.191C179.437 127.191 180.392 127.59 181.095 128.387C181.798 129.178 182.149 130.224 182.149 131.524V132.447H175.514C175.543 133.578 175.827 134.437 176.366 135.022C176.911 135.608 177.676 135.901 178.66 135.901C179.697 135.901 180.723 135.685 181.736 135.251V136.552C181.221 136.774 180.731 136.933 180.269 137.026C179.812 137.126 179.258 137.176 178.607 137.176ZM178.212 128.413C177.438 128.413 176.82 128.665 176.357 129.169C175.9 129.673 175.631 130.37 175.549 131.261H180.585C180.585 130.341 180.38 129.638 179.97 129.151C179.56 128.659 178.974 128.413 178.212 128.413ZM186.175 134.908L186.307 135.11C186.154 135.696 185.935 136.376 185.647 137.149C185.36 137.929 185.062 138.652 184.751 139.32H183.652C183.811 138.711 183.983 137.958 184.171 137.062C184.364 136.165 184.499 135.447 184.575 134.908H186.175ZM31.417 162L27.0576 150.609H26.9873C27.0693 151.512 27.1104 152.584 27.1104 153.826V162H25.7305V149.15H27.9805L32.0498 159.75H32.1201L36.2246 149.15H38.457V162H36.9629V153.721C36.9629 152.771 37.0039 151.74 37.0859 150.627H37.0156L32.6211 162H31.417ZM47.6943 162L47.4043 160.629H47.334C46.8535 161.232 46.373 161.643 45.8926 161.859C45.418 162.07 44.8232 162.176 44.1084 162.176C43.1533 162.176 42.4033 161.93 41.8584 161.438C41.3193 160.945 41.0498 160.245 41.0498 159.337C41.0498 157.392 42.6055 156.372 45.7168 156.278L47.3516 156.226V155.628C47.3516 154.872 47.1875 154.315 46.8594 153.958C46.5371 153.595 46.0186 153.413 45.3037 153.413C44.501 153.413 43.5928 153.659 42.5791 154.151L42.1309 153.035C42.6055 152.777 43.124 152.575 43.6865 152.429C44.2549 152.282 44.8232 152.209 45.3916 152.209C46.54 152.209 47.3896 152.464 47.9404 152.974C48.4971 153.483 48.7754 154.301 48.7754 155.426V162H47.6943ZM44.3984 160.972C45.3066 160.972 46.0186 160.723 46.5342 160.225C47.0557 159.727 47.3164 159.029 47.3164 158.133V157.263L45.8574 157.324C44.6973 157.365 43.8594 157.547 43.3438 157.869C42.834 158.186 42.5791 158.681 42.5791 159.354C42.5791 159.882 42.7373 160.283 43.0537 160.559C43.376 160.834 43.8242 160.972 44.3984 160.972ZM55.6396 162.176C54.2451 162.176 53.1641 161.748 52.3965 160.893C51.6348 160.031 51.2539 158.815 51.2539 157.245C51.2539 155.634 51.6406 154.389 52.4141 153.51C53.1934 152.631 54.3008 152.191 55.7363 152.191C56.1992 152.191 56.6621 152.241 57.125 152.341C57.5879 152.44 57.9512 152.558 58.2148 152.692L57.7666 153.932C57.4443 153.803 57.0928 153.697 56.7119 153.615C56.3311 153.527 55.9941 153.483 55.7012 153.483C53.7441 153.483 52.7656 154.731 52.7656 157.228C52.7656 158.411 53.0029 159.319 53.4775 159.952C53.958 160.585 54.667 160.901 55.6045 160.901C56.4072 160.901 57.2305 160.729 58.0742 160.383V161.675C57.4297 162.009 56.6182 162.176 55.6396 162.176ZM66.96 162V155.769C66.96 154.983 66.7812 154.397 66.4238 154.011C66.0664 153.624 65.5068 153.431 64.7451 153.431C63.7314 153.431 62.9902 153.706 62.5215 154.257C62.0586 154.808 61.8271 155.71 61.8271 156.964V162H60.3682V148.324H61.8271V152.464C61.8271 152.962 61.8037 153.375 61.7568 153.703H61.8447C62.1318 153.24 62.5391 152.877 63.0664 152.613C63.5996 152.344 64.2061 152.209 64.8857 152.209C66.0635 152.209 66.9453 152.49 67.5312 153.053C68.123 153.609 68.4189 154.497 68.4189 155.716V162H66.96ZM72.8838 162H71.4248V152.367H72.8838V162ZM71.3018 149.757C71.3018 149.423 71.3838 149.18 71.5479 149.027C71.7119 148.869 71.917 148.79 72.1631 148.79C72.3975 148.79 72.5996 148.869 72.7695 149.027C72.9395 149.186 73.0244 149.429 73.0244 149.757C73.0244 150.085 72.9395 150.331 72.7695 150.495C72.5996 150.653 72.3975 150.732 72.1631 150.732C71.917 150.732 71.7119 150.653 71.5479 150.495C71.3838 150.331 71.3018 150.085 71.3018 149.757ZM82.5693 162V155.769C82.5693 154.983 82.3906 154.397 82.0332 154.011C81.6758 153.624 81.1162 153.431 80.3545 153.431C79.3467 153.431 78.6084 153.703 78.1396 154.248C77.6709 154.793 77.4365 155.692 77.4365 156.946V162H75.9775V152.367H77.1641L77.4014 153.686H77.4717C77.7705 153.211 78.1895 152.845 78.7285 152.587C79.2676 152.323 79.8682 152.191 80.5303 152.191C81.6904 152.191 82.5635 152.473 83.1494 153.035C83.7354 153.592 84.0283 154.485 84.0283 155.716V162H82.5693ZM91.1035 162.176C89.6797 162.176 88.5547 161.742 87.7285 160.875C86.9082 160.008 86.498 158.804 86.498 157.263C86.498 155.71 86.8789 154.477 87.6406 153.562C88.4082 152.648 89.4365 152.191 90.7256 152.191C91.9326 152.191 92.8877 152.59 93.5908 153.387C94.2939 154.178 94.6455 155.224 94.6455 156.524V157.447H88.0098C88.0391 158.578 88.3232 159.437 88.8623 160.022C89.4072 160.608 90.1719 160.901 91.1562 160.901C92.1934 160.901 93.2188 160.685 94.2324 160.251V161.552C93.7168 161.774 93.2275 161.933 92.7646 162.026C92.3076 162.126 91.7539 162.176 91.1035 162.176ZM90.708 153.413C89.9346 153.413 89.3164 153.665 88.8535 154.169C88.3965 154.673 88.127 155.37 88.0449 156.261H93.0811C93.0811 155.341 92.876 154.638 92.4658 154.151C92.0557 153.659 91.4697 153.413 90.708 153.413ZM102.037 162V149.15H103.531V160.646H109.2V162H102.037ZM115.238 162.176C113.814 162.176 112.689 161.742 111.863 160.875C111.043 160.008 110.633 158.804 110.633 157.263C110.633 155.71 111.014 154.477 111.775 153.562C112.543 152.648 113.571 152.191 114.86 152.191C116.067 152.191 117.022 152.59 117.726 153.387C118.429 154.178 118.78 155.224 118.78 156.524V157.447H112.145C112.174 158.578 112.458 159.437 112.997 160.022C113.542 160.608 114.307 160.901 115.291 160.901C116.328 160.901 117.354 160.685 118.367 160.251V161.552C117.852 161.774 117.362 161.933 116.899 162.026C116.442 162.126 115.889 162.176 115.238 162.176ZM114.843 153.413C114.069 153.413 113.451 153.665 112.988 154.169C112.531 154.673 112.262 155.37 112.18 156.261H117.216C117.216 155.341 117.011 154.638 116.601 154.151C116.19 153.659 115.604 153.413 114.843 153.413ZM127.2 162L126.91 160.629H126.84C126.359 161.232 125.879 161.643 125.398 161.859C124.924 162.07 124.329 162.176 123.614 162.176C122.659 162.176 121.909 161.93 121.364 161.438C120.825 160.945 120.556 160.245 120.556 159.337C120.556 157.392 122.111 156.372 125.223 156.278L126.857 156.226V155.628C126.857 154.872 126.693 154.315 126.365 153.958C126.043 153.595 125.524 153.413 124.81 153.413C124.007 153.413 123.099 153.659 122.085 154.151L121.637 153.035C122.111 152.777 122.63 152.575 123.192 152.429C123.761 152.282 124.329 152.209 124.897 152.209C126.046 152.209 126.896 152.464 127.446 152.974C128.003 153.483 128.281 154.301 128.281 155.426V162H127.2ZM123.904 160.972C124.812 160.972 125.524 160.723 126.04 160.225C126.562 159.727 126.822 159.029 126.822 158.133V157.263L125.363 157.324C124.203 157.365 123.365 157.547 122.85 157.869C122.34 158.186 122.085 158.681 122.085 159.354C122.085 159.882 122.243 160.283 122.56 160.559C122.882 160.834 123.33 160.972 123.904 160.972ZM135.69 152.191C136.118 152.191 136.502 152.227 136.842 152.297L136.64 153.65C136.241 153.562 135.89 153.519 135.585 153.519C134.806 153.519 134.138 153.835 133.581 154.468C133.03 155.101 132.755 155.889 132.755 156.832V162H131.296V152.367H132.5L132.667 154.151H132.737C133.095 153.524 133.525 153.041 134.029 152.701C134.533 152.361 135.087 152.191 135.69 152.191ZM145.235 162V155.769C145.235 154.983 145.057 154.397 144.699 154.011C144.342 153.624 143.782 153.431 143.021 153.431C142.013 153.431 141.274 153.703 140.806 154.248C140.337 154.793 140.103 155.692 140.103 156.946V162H138.644V152.367H139.83L140.067 153.686H140.138C140.437 153.211 140.855 152.845 141.395 152.587C141.934 152.323 142.534 152.191 143.196 152.191C144.356 152.191 145.229 152.473 145.815 153.035C146.401 153.592 146.694 154.485 146.694 155.716V162H145.235ZM151.159 162H149.7V152.367H151.159V162ZM149.577 149.757C149.577 149.423 149.659 149.18 149.823 149.027C149.987 148.869 150.192 148.79 150.438 148.79C150.673 148.79 150.875 148.869 151.045 149.027C151.215 149.186 151.3 149.429 151.3 149.757C151.3 150.085 151.215 150.331 151.045 150.495C150.875 150.653 150.673 150.732 150.438 150.732C150.192 150.732 149.987 150.653 149.823 150.495C149.659 150.331 149.577 150.085 149.577 149.757ZM160.845 162V155.769C160.845 154.983 160.666 154.397 160.309 154.011C159.951 153.624 159.392 153.431 158.63 153.431C157.622 153.431 156.884 153.703 156.415 154.248C155.946 154.793 155.712 155.692 155.712 156.946V162H154.253V152.367H155.439L155.677 153.686H155.747C156.046 153.211 156.465 152.845 157.004 152.587C157.543 152.323 158.144 152.191 158.806 152.191C159.966 152.191 160.839 152.473 161.425 153.035C162.011 153.592 162.304 154.485 162.304 155.716V162H160.845ZM173.193 152.367V153.29L171.409 153.501C171.573 153.706 171.72 153.976 171.849 154.31C171.978 154.638 172.042 155.01 172.042 155.426C172.042 156.369 171.72 157.122 171.075 157.685C170.431 158.247 169.546 158.528 168.421 158.528C168.134 158.528 167.864 158.505 167.612 158.458C166.991 158.786 166.681 159.199 166.681 159.697C166.681 159.961 166.789 160.157 167.006 160.286C167.223 160.409 167.595 160.471 168.122 160.471H169.827C170.87 160.471 171.67 160.69 172.227 161.13C172.789 161.569 173.07 162.208 173.07 163.046C173.07 164.112 172.643 164.924 171.787 165.48C170.932 166.043 169.684 166.324 168.043 166.324C166.783 166.324 165.811 166.09 165.125 165.621C164.445 165.152 164.105 164.49 164.105 163.635C164.105 163.049 164.293 162.542 164.668 162.114C165.043 161.687 165.57 161.396 166.25 161.244C166.004 161.133 165.796 160.96 165.626 160.726C165.462 160.491 165.38 160.219 165.38 159.908C165.38 159.557 165.474 159.249 165.661 158.985C165.849 158.722 166.145 158.467 166.549 158.221C166.051 158.016 165.644 157.667 165.327 157.175C165.017 156.683 164.861 156.12 164.861 155.487C164.861 154.433 165.178 153.621 165.811 153.053C166.443 152.479 167.34 152.191 168.5 152.191C169.004 152.191 169.458 152.25 169.862 152.367H173.193ZM165.512 163.617C165.512 164.139 165.731 164.534 166.171 164.804C166.61 165.073 167.24 165.208 168.061 165.208C169.285 165.208 170.19 165.023 170.776 164.654C171.368 164.291 171.664 163.796 171.664 163.169C171.664 162.647 171.503 162.284 171.181 162.079C170.858 161.88 170.252 161.78 169.361 161.78H167.612C166.95 161.78 166.435 161.938 166.065 162.255C165.696 162.571 165.512 163.025 165.512 163.617ZM166.303 155.452C166.303 156.126 166.493 156.636 166.874 156.981C167.255 157.327 167.785 157.5 168.465 157.5C169.889 157.5 170.601 156.809 170.601 155.426C170.601 153.979 169.88 153.255 168.438 153.255C167.753 153.255 167.226 153.439 166.856 153.809C166.487 154.178 166.303 154.726 166.303 155.452ZM176.7 159.908L176.832 160.11C176.68 160.696 176.46 161.376 176.173 162.149C175.886 162.929 175.587 163.652 175.276 164.32H174.178C174.336 163.711 174.509 162.958 174.696 162.062C174.89 161.165 175.024 160.447 175.101 159.908H176.7ZM36.541 187L36.251 185.629H36.1807C35.7002 186.232 35.2197 186.643 34.7393 186.859C34.2646 187.07 33.6699 187.176 32.9551 187.176C32 187.176 31.25 186.93 30.7051 186.438C30.166 185.945 29.8965 185.245 29.8965 184.337C29.8965 182.392 31.4521 181.372 34.5635 181.278L36.1982 181.226V180.628C36.1982 179.872 36.0342 179.315 35.7061 178.958C35.3838 178.595 34.8652 178.413 34.1504 178.413C33.3477 178.413 32.4395 178.659 31.4258 179.151L30.9775 178.035C31.4521 177.777 31.9707 177.575 32.5332 177.429C33.1016 177.282 33.6699 177.209 34.2383 177.209C35.3867 177.209 36.2363 177.464 36.7871 177.974C37.3438 178.483 37.6221 179.301 37.6221 180.426V187H36.541ZM33.2451 185.972C34.1533 185.972 34.8652 185.723 35.3809 185.225C35.9023 184.727 36.1631 184.029 36.1631 183.133V182.263L34.7041 182.324C33.5439 182.365 32.7061 182.547 32.1904 182.869C31.6807 183.186 31.4258 183.681 31.4258 184.354C31.4258 184.882 31.584 185.283 31.9004 185.559C32.2227 185.834 32.6709 185.972 33.2451 185.972ZM47.2285 187V180.769C47.2285 179.983 47.0498 179.397 46.6924 179.011C46.335 178.624 45.7754 178.431 45.0137 178.431C44.0059 178.431 43.2676 178.703 42.7988 179.248C42.3301 179.793 42.0957 180.692 42.0957 181.946V187H40.6367V177.367H41.8232L42.0605 178.686H42.1309C42.4297 178.211 42.8486 177.845 43.3877 177.587C43.9268 177.323 44.5273 177.191 45.1895 177.191C46.3496 177.191 47.2227 177.473 47.8086 178.035C48.3945 178.592 48.6875 179.485 48.6875 180.716V187H47.2285ZM58.25 185.708H58.1709C57.4971 186.687 56.4893 187.176 55.1475 187.176C53.8877 187.176 52.9062 186.745 52.2031 185.884C51.5059 185.022 51.1572 183.798 51.1572 182.21C51.1572 180.622 51.5088 179.389 52.2119 178.51C52.915 177.631 53.8936 177.191 55.1475 177.191C56.4541 177.191 57.4561 177.666 58.1533 178.615H58.2676L58.2061 177.921L58.1709 177.244V173.324H59.6299V187H58.4434L58.25 185.708ZM55.332 185.954C56.3281 185.954 57.0488 185.685 57.4941 185.146C57.9453 184.601 58.1709 183.725 58.1709 182.518V182.21C58.1709 180.845 57.9424 179.872 57.4854 179.292C57.0342 178.706 56.3105 178.413 55.3145 178.413C54.459 178.413 53.8027 178.747 53.3457 179.415C52.8945 180.077 52.6689 181.015 52.6689 182.228C52.6689 183.458 52.8945 184.387 53.3457 185.014C53.7969 185.641 54.459 185.954 55.332 185.954ZM77.8848 180.452C77.8848 182.573 77.3076 184.196 76.1533 185.321C75.0049 186.44 73.3496 187 71.1875 187H67.6279V174.15H71.5654C73.5635 174.15 75.1162 174.704 76.2236 175.812C77.3311 176.919 77.8848 178.466 77.8848 180.452ZM76.3027 180.505C76.3027 178.829 75.8809 177.566 75.0371 176.717C74.1992 175.867 72.9512 175.442 71.293 175.442H69.1221V185.708H70.9414C72.7227 185.708 74.0615 185.271 74.958 184.398C75.8545 183.52 76.3027 182.222 76.3027 180.505ZM86.4629 187L86.1729 185.629H86.1025C85.6221 186.232 85.1416 186.643 84.6611 186.859C84.1865 187.07 83.5918 187.176 82.877 187.176C81.9219 187.176 81.1719 186.93 80.627 186.438C80.0879 185.945 79.8184 185.245 79.8184 184.337C79.8184 182.392 81.374 181.372 84.4854 181.278L86.1201 181.226V180.628C86.1201 179.872 85.9561 179.315 85.6279 178.958C85.3057 178.595 84.7871 178.413 84.0723 178.413C83.2695 178.413 82.3613 178.659 81.3477 179.151L80.8994 178.035C81.374 177.777 81.8926 177.575 82.4551 177.429C83.0234 177.282 83.5918 177.209 84.1602 177.209C85.3086 177.209 86.1582 177.464 86.709 177.974C87.2656 178.483 87.5439 179.301 87.5439 180.426V187H86.4629ZM83.167 185.972C84.0752 185.972 84.7871 185.723 85.3027 185.225C85.8242 184.727 86.085 184.029 86.085 183.133V182.263L84.626 182.324C83.4658 182.365 82.6279 182.547 82.1123 182.869C81.6025 183.186 81.3477 183.681 81.3477 184.354C81.3477 184.882 81.5059 185.283 81.8223 185.559C82.1445 185.834 82.5928 185.972 83.167 185.972ZM93.6699 185.972C93.9277 185.972 94.1768 185.954 94.417 185.919C94.6572 185.878 94.8477 185.837 94.9883 185.796V186.912C94.8301 186.988 94.5957 187.05 94.2852 187.097C93.9805 187.149 93.7051 187.176 93.459 187.176C91.5957 187.176 90.6641 186.194 90.6641 184.231V178.501H89.2842V177.798L90.6641 177.191L91.2793 175.135H92.123V177.367H94.918V178.501H92.123V184.17C92.123 184.75 92.2607 185.195 92.5361 185.506C92.8115 185.816 93.1895 185.972 93.6699 185.972ZM102.846 187L102.556 185.629H102.485C102.005 186.232 101.524 186.643 101.044 186.859C100.569 187.07 99.9746 187.176 99.2598 187.176C98.3047 187.176 97.5547 186.93 97.0098 186.438C96.4707 185.945 96.2012 185.245 96.2012 184.337C96.2012 182.392 97.7568 181.372 100.868 181.278L102.503 181.226V180.628C102.503 179.872 102.339 179.315 102.011 178.958C101.688 178.595 101.17 178.413 100.455 178.413C99.6523 178.413 98.7441 178.659 97.7305 179.151L97.2822 178.035C97.7568 177.777 98.2754 177.575 98.8379 177.429C99.4062 177.282 99.9746 177.209 100.543 177.209C101.691 177.209 102.541 177.464 103.092 177.974C103.648 178.483 103.927 179.301 103.927 180.426V187H102.846ZM99.5498 185.972C100.458 185.972 101.17 185.723 101.686 185.225C102.207 184.727 102.468 184.029 102.468 183.133V182.263L101.009 182.324C99.8486 182.365 99.0107 182.547 98.4951 182.869C97.9854 183.186 97.7305 183.681 97.7305 184.354C97.7305 184.882 97.8887 185.283 98.2051 185.559C98.5273 185.834 98.9756 185.972 99.5498 185.972ZM119.088 183.581C119.088 184.712 118.678 185.594 117.857 186.227C117.037 186.859 115.924 187.176 114.518 187.176C112.994 187.176 111.822 186.979 111.002 186.587V185.146C111.529 185.368 112.104 185.544 112.725 185.673C113.346 185.802 113.961 185.866 114.57 185.866C115.566 185.866 116.316 185.679 116.82 185.304C117.324 184.923 117.576 184.396 117.576 183.722C117.576 183.276 117.485 182.913 117.304 182.632C117.128 182.345 116.829 182.081 116.407 181.841C115.991 181.601 115.355 181.328 114.5 181.023C113.305 180.596 112.449 180.089 111.934 179.503C111.424 178.917 111.169 178.152 111.169 177.209C111.169 176.219 111.541 175.431 112.285 174.845C113.029 174.259 114.014 173.966 115.238 173.966C116.516 173.966 117.69 174.2 118.763 174.669L118.297 175.97C117.236 175.524 116.205 175.302 115.203 175.302C114.412 175.302 113.794 175.472 113.349 175.812C112.903 176.151 112.681 176.623 112.681 177.227C112.681 177.672 112.763 178.038 112.927 178.325C113.091 178.606 113.366 178.867 113.753 179.107C114.146 179.342 114.743 179.603 115.546 179.89C116.894 180.37 117.819 180.886 118.323 181.437C118.833 181.987 119.088 182.702 119.088 183.581ZM125.346 187.176C123.951 187.176 122.87 186.748 122.103 185.893C121.341 185.031 120.96 183.815 120.96 182.245C120.96 180.634 121.347 179.389 122.12 178.51C122.899 177.631 124.007 177.191 125.442 177.191C125.905 177.191 126.368 177.241 126.831 177.341C127.294 177.44 127.657 177.558 127.921 177.692L127.473 178.932C127.15 178.803 126.799 178.697 126.418 178.615C126.037 178.527 125.7 178.483 125.407 178.483C123.45 178.483 122.472 179.731 122.472 182.228C122.472 183.411 122.709 184.319 123.184 184.952C123.664 185.585 124.373 185.901 125.311 185.901C126.113 185.901 126.937 185.729 127.78 185.383V186.675C127.136 187.009 126.324 187.176 125.346 187.176ZM131.533 187H130.074V177.367H131.533V187ZM129.951 174.757C129.951 174.423 130.033 174.18 130.197 174.027C130.361 173.869 130.566 173.79 130.812 173.79C131.047 173.79 131.249 173.869 131.419 174.027C131.589 174.186 131.674 174.429 131.674 174.757C131.674 175.085 131.589 175.331 131.419 175.495C131.249 175.653 131.047 175.732 130.812 175.732C130.566 175.732 130.361 175.653 130.197 175.495C130.033 175.331 129.951 175.085 129.951 174.757ZM138.696 187.176C137.272 187.176 136.147 186.742 135.321 185.875C134.501 185.008 134.091 183.804 134.091 182.263C134.091 180.71 134.472 179.477 135.233 178.562C136.001 177.648 137.029 177.191 138.318 177.191C139.525 177.191 140.48 177.59 141.184 178.387C141.887 179.178 142.238 180.224 142.238 181.524V182.447H135.603C135.632 183.578 135.916 184.437 136.455 185.022C137 185.608 137.765 185.901 138.749 185.901C139.786 185.901 140.812 185.685 141.825 185.251V186.552C141.31 186.774 140.82 186.933 140.357 187.026C139.9 187.126 139.347 187.176 138.696 187.176ZM138.301 178.413C137.527 178.413 136.909 178.665 136.446 179.169C135.989 179.673 135.72 180.37 135.638 181.261H140.674C140.674 180.341 140.469 179.638 140.059 179.151C139.648 178.659 139.062 178.413 138.301 178.413ZM151.326 187V180.769C151.326 179.983 151.147 179.397 150.79 179.011C150.433 178.624 149.873 178.431 149.111 178.431C148.104 178.431 147.365 178.703 146.896 179.248C146.428 179.793 146.193 180.692 146.193 181.946V187H144.734V177.367H145.921L146.158 178.686H146.229C146.527 178.211 146.946 177.845 147.485 177.587C148.024 177.323 148.625 177.191 149.287 177.191C150.447 177.191 151.32 177.473 151.906 178.035C152.492 178.592 152.785 179.485 152.785 180.716V187H151.326ZM159.641 187.176C158.246 187.176 157.165 186.748 156.397 185.893C155.636 185.031 155.255 183.815 155.255 182.245C155.255 180.634 155.642 179.389 156.415 178.51C157.194 177.631 158.302 177.191 159.737 177.191C160.2 177.191 160.663 177.241 161.126 177.341C161.589 177.44 161.952 177.558 162.216 177.692L161.768 178.932C161.445 178.803 161.094 178.697 160.713 178.615C160.332 178.527 159.995 178.483 159.702 178.483C157.745 178.483 156.767 179.731 156.767 182.228C156.767 183.411 157.004 184.319 157.479 184.952C157.959 185.585 158.668 185.901 159.605 185.901C160.408 185.901 161.231 185.729 162.075 185.383V186.675C161.431 187.009 160.619 187.176 159.641 187.176ZM168.438 187.176C167.015 187.176 165.89 186.742 165.063 185.875C164.243 185.008 163.833 183.804 163.833 182.263C163.833 180.71 164.214 179.477 164.976 178.562C165.743 177.648 166.771 177.191 168.061 177.191C169.268 177.191 170.223 177.59 170.926 178.387C171.629 179.178 171.98 180.224 171.98 181.524V182.447H165.345C165.374 183.578 165.658 184.437 166.197 185.022C166.742 185.608 167.507 185.901 168.491 185.901C169.528 185.901 170.554 185.685 171.567 185.251V186.552C171.052 186.774 170.562 186.933 170.1 187.026C169.643 187.126 169.089 187.176 168.438 187.176ZM168.043 178.413C167.27 178.413 166.651 178.665 166.188 179.169C165.731 179.673 165.462 180.37 165.38 181.261H170.416C170.416 180.341 170.211 179.638 169.801 179.151C169.391 178.659 168.805 178.413 168.043 178.413Z" fill="black"/>
<path d="M110.848 58.1666L107.333 61.882V62.1595L110.848 65.875H116.083V68.9583H109.652L107.333 66.507V70.5H105.875C105.102 70.5 104.36 70.1751 103.813 69.5969C103.266 69.0186 102.958 68.2344 102.958 67.4166V63.5625H98.3793C98.248 64.1329 98.0293 64.6725 97.7376 65.1812L106.138 81.2916H113.167C113.94 81.2916 114.682 81.6165 115.229 82.1947C115.776 82.773 116.083 83.5572 116.083 84.375V85.9166H86.9168V84.375C86.9168 83.5572 87.2241 82.773 87.771 82.1947C88.318 81.6165 89.0599 81.2916 89.8334 81.2916H99.473L92.6334 68.1875C91.3564 68.1646 90.1216 67.7 89.1181 66.8647C88.1146 66.0294 87.3977 64.8695 87.0772 63.5625C86.8867 62.7769 86.8447 61.9594 86.9535 61.1566C87.0623 60.3539 87.3199 59.5817 87.7113 58.8843C88.1028 58.187 88.6206 57.578 89.2349 57.0925C89.8493 56.6069 90.5483 56.2542 91.2918 56.0545C94.398 55.2066 97.5772 57.18 98.3793 60.4791H102.958V56.625C102.958 55.8072 103.266 55.023 103.813 54.4447C104.36 53.8665 105.102 53.5416 105.875 53.5416H107.333V57.5345L109.652 55.0833H116.083V58.1666H110.848ZM92.7501 58.9375C91.9765 58.9375 91.2347 59.2623 90.6877 59.8405C90.1407 60.4188 89.8334 61.203 89.8334 62.0208C89.8334 62.8385 90.1407 63.6228 90.6877 64.201C91.2347 64.7793 91.9765 65.1041 92.7501 65.1041C93.5236 65.1041 94.2655 64.7793 94.8125 64.201C95.3595 63.6228 95.6668 62.8385 95.6668 62.0208C95.6668 61.203 95.3595 60.4188 94.8125 59.8405C94.2655 59.2623 93.5236 58.9375 92.7501 58.9375V58.9375Z" fill="#FC8F52"/>
<defs>
<filter id="filter0_d" x="55" y="26" width="95" height="91" filterUnits="userSpaceOnUse" color-interpolation-filters="sRGB">
<feFlood flood-opacity="0" result="BackgroundImageFix"/>
<feColorMatrix in="SourceAlpha" type="matrix" values="0 0 0 0 0 0 0 0 0 0 0 0 0 0 0 0 0 0 127 0" result="hardAlpha"/>
<feOffset dx="1" dy="1"/>
<feGaussianBlur stdDeviation="5"/>
<feColorMatrix type="matrix" values="0 0 0 0 0 0 0 0 0 0 0 0 0 0 0 0 0 0 0.13 0"/>
<feBlend mode="normal" in2="BackgroundImageFix" result="effect1_dropShadow"/>
<feBlend mode="normal" in="SourceGraphic" in2="effect1_dropShadow" result="shape"/>
</filter>
</defs>
</svg>
