<svg width="204" height="173" viewBox="0 0 204 173" fill="none" xmlns="http://www.w3.org/2000/svg">
<g filter="url(#filter0_d)">
<ellipse cx="101.5" cy="70.5" rx="37.5" ry="35.5" fill="white"/>
</g>
<path d="M175.5 74.5C175.5 114.218 142.64 146.5 102 146.5C61.3599 146.5 28.5 114.218 28.5 74.5C28.5 34.7822 61.3599 2.5 102 2.5C142.64 2.5 175.5 34.7822 175.5 74.5Z" stroke="#FC8F52" stroke-width="5"/>
<rect y="110" width="204" height="63" fill="white"/>
<path d="M24.9141 146.895C24.9141 148.195 24.4688 149.197 23.5781 149.9C22.6934 150.598 21.4248 150.946 19.7725 150.946H18.2607V156H16.7666V143.15H20.0977C23.3086 143.15 24.9141 144.398 24.9141 146.895ZM18.2607 149.663H19.6055C20.9297 149.663 21.8877 149.449 22.4795 149.021C23.0713 148.594 23.3672 147.908 23.3672 146.965C23.3672 146.115 23.0889 145.482 22.5322 145.066C21.9756 144.65 21.1084 144.442 19.9307 144.442H18.2607V149.663ZM31.7871 146.191C32.2148 146.191 32.5986 146.227 32.9385 146.297L32.7363 147.65C32.3379 147.562 31.9863 147.519 31.6816 147.519C30.9023 147.519 30.2344 147.835 29.6777 148.468C29.127 149.101 28.8516 149.889 28.8516 150.832V156H27.3926V146.367H28.5967L28.7637 148.151H28.834C29.1914 147.524 29.6221 147.041 30.126 146.701C30.6299 146.361 31.1836 146.191 31.7871 146.191ZM43.0547 151.175C43.0547 152.745 42.6592 153.973 41.8682 154.857C41.0771 155.736 39.9844 156.176 38.5898 156.176C37.7285 156.176 36.9639 155.974 36.2959 155.569C35.6279 155.165 35.1123 154.585 34.749 153.829C34.3857 153.073 34.2041 152.188 34.2041 151.175C34.2041 149.604 34.5967 148.383 35.3818 147.51C36.167 146.631 37.2568 146.191 38.6514 146.191C39.999 146.191 41.0684 146.64 41.8594 147.536C42.6562 148.433 43.0547 149.646 43.0547 151.175ZM35.7158 151.175C35.7158 152.405 35.9619 153.343 36.4541 153.987C36.9463 154.632 37.6699 154.954 38.625 154.954C39.5801 154.954 40.3037 154.635 40.7959 153.996C41.2939 153.352 41.543 152.411 41.543 151.175C41.543 149.95 41.2939 149.021 40.7959 148.389C40.3037 147.75 39.5742 147.431 38.6074 147.431C37.6523 147.431 36.9316 147.744 36.4453 148.371C35.959 148.998 35.7158 149.933 35.7158 151.175ZM52.1777 154.708H52.0986C51.4248 155.687 50.417 156.176 49.0752 156.176C47.8154 156.176 46.834 155.745 46.1309 154.884C45.4336 154.022 45.085 152.798 45.085 151.21C45.085 149.622 45.4365 148.389 46.1396 147.51C46.8428 146.631 47.8213 146.191 49.0752 146.191C50.3818 146.191 51.3838 146.666 52.0811 147.615H52.1953L52.1338 146.921L52.0986 146.244V142.324H53.5576V156H52.3711L52.1777 154.708ZM49.2598 154.954C50.2559 154.954 50.9766 154.685 51.4219 154.146C51.873 153.601 52.0986 152.725 52.0986 151.518V151.21C52.0986 149.845 51.8701 148.872 51.4131 148.292C50.9619 147.706 50.2383 147.413 49.2422 147.413C48.3867 147.413 47.7305 147.747 47.2734 148.415C46.8223 149.077 46.5967 150.015 46.5967 151.228C46.5967 152.458 46.8223 153.387 47.2734 154.014C47.7246 154.641 48.3867 154.954 49.2598 154.954ZM58.0312 146.367V152.616C58.0312 153.401 58.21 153.987 58.5674 154.374C58.9248 154.761 59.4844 154.954 60.2461 154.954C61.2539 154.954 61.9893 154.679 62.4521 154.128C62.9209 153.577 63.1553 152.678 63.1553 151.43V146.367H64.6143V156H63.4102L63.1992 154.708H63.1201C62.8213 155.183 62.4053 155.546 61.8721 155.798C61.3447 156.05 60.7412 156.176 60.0615 156.176C58.8896 156.176 58.0107 155.897 57.4248 155.341C56.8447 154.784 56.5547 153.894 56.5547 152.669V146.367H58.0312ZM71.5664 156.176C70.1719 156.176 69.0908 155.748 68.3232 154.893C67.5615 154.031 67.1807 152.815 67.1807 151.245C67.1807 149.634 67.5674 148.389 68.3408 147.51C69.1201 146.631 70.2275 146.191 71.6631 146.191C72.126 146.191 72.5889 146.241 73.0518 146.341C73.5146 146.44 73.8779 146.558 74.1416 146.692L73.6934 147.932C73.3711 147.803 73.0195 147.697 72.6387 147.615C72.2578 147.527 71.9209 147.483 71.6279 147.483C69.6709 147.483 68.6924 148.731 68.6924 151.228C68.6924 152.411 68.9297 153.319 69.4043 153.952C69.8848 154.585 70.5938 154.901 71.5312 154.901C72.334 154.901 73.1572 154.729 74.001 154.383V155.675C73.3564 156.009 72.5449 156.176 71.5664 156.176ZM79.4062 154.972C79.6641 154.972 79.9131 154.954 80.1533 154.919C80.3936 154.878 80.584 154.837 80.7246 154.796V155.912C80.5664 155.988 80.332 156.05 80.0215 156.097C79.7168 156.149 79.4414 156.176 79.1953 156.176C77.332 156.176 76.4004 155.194 76.4004 153.231V147.501H75.0205V146.798L76.4004 146.191L77.0156 144.135H77.8594V146.367H80.6543V147.501H77.8594V153.17C77.8594 153.75 77.9971 154.195 78.2725 154.506C78.5479 154.816 78.9258 154.972 79.4062 154.972ZM94.7168 156H87.5537V143.15H94.7168V144.478H89.0479V148.617H94.374V149.936H89.0479V154.664H94.7168V156ZM103.945 156V149.769C103.945 148.983 103.767 148.397 103.409 148.011C103.052 147.624 102.492 147.431 101.73 147.431C100.723 147.431 99.9844 147.703 99.5156 148.248C99.0469 148.793 98.8125 149.692 98.8125 150.946V156H97.3535V146.367H98.54L98.7773 147.686H98.8477C99.1465 147.211 99.5654 146.845 100.104 146.587C100.644 146.323 101.244 146.191 101.906 146.191C103.066 146.191 103.939 146.473 104.525 147.035C105.111 147.592 105.404 148.485 105.404 149.716V156H103.945ZM116.294 146.367V147.29L114.51 147.501C114.674 147.706 114.82 147.976 114.949 148.31C115.078 148.638 115.143 149.01 115.143 149.426C115.143 150.369 114.82 151.122 114.176 151.685C113.531 152.247 112.646 152.528 111.521 152.528C111.234 152.528 110.965 152.505 110.713 152.458C110.092 152.786 109.781 153.199 109.781 153.697C109.781 153.961 109.89 154.157 110.106 154.286C110.323 154.409 110.695 154.471 111.223 154.471H112.928C113.971 154.471 114.771 154.69 115.327 155.13C115.89 155.569 116.171 156.208 116.171 157.046C116.171 158.112 115.743 158.924 114.888 159.48C114.032 160.043 112.784 160.324 111.144 160.324C109.884 160.324 108.911 160.09 108.226 159.621C107.546 159.152 107.206 158.49 107.206 157.635C107.206 157.049 107.394 156.542 107.769 156.114C108.144 155.687 108.671 155.396 109.351 155.244C109.104 155.133 108.896 154.96 108.727 154.726C108.562 154.491 108.48 154.219 108.48 153.908C108.48 153.557 108.574 153.249 108.762 152.985C108.949 152.722 109.245 152.467 109.649 152.221C109.151 152.016 108.744 151.667 108.428 151.175C108.117 150.683 107.962 150.12 107.962 149.487C107.962 148.433 108.278 147.621 108.911 147.053C109.544 146.479 110.44 146.191 111.601 146.191C112.104 146.191 112.559 146.25 112.963 146.367H116.294ZM108.612 157.617C108.612 158.139 108.832 158.534 109.271 158.804C109.711 159.073 110.341 159.208 111.161 159.208C112.386 159.208 113.291 159.023 113.877 158.654C114.469 158.291 114.765 157.796 114.765 157.169C114.765 156.647 114.604 156.284 114.281 156.079C113.959 155.88 113.353 155.78 112.462 155.78H110.713C110.051 155.78 109.535 155.938 109.166 156.255C108.797 156.571 108.612 157.025 108.612 157.617ZM109.403 149.452C109.403 150.126 109.594 150.636 109.975 150.981C110.355 151.327 110.886 151.5 111.565 151.5C112.989 151.5 113.701 150.809 113.701 149.426C113.701 147.979 112.98 147.255 111.539 147.255C110.854 147.255 110.326 147.439 109.957 147.809C109.588 148.178 109.403 148.726 109.403 149.452ZM119.73 156H118.271V146.367H119.73V156ZM118.148 143.757C118.148 143.423 118.23 143.18 118.395 143.027C118.559 142.869 118.764 142.79 119.01 142.79C119.244 142.79 119.446 142.869 119.616 143.027C119.786 143.186 119.871 143.429 119.871 143.757C119.871 144.085 119.786 144.331 119.616 144.495C119.446 144.653 119.244 144.732 119.01 144.732C118.764 144.732 118.559 144.653 118.395 144.495C118.23 144.331 118.148 144.085 118.148 143.757ZM129.416 156V149.769C129.416 148.983 129.237 148.397 128.88 148.011C128.522 147.624 127.963 147.431 127.201 147.431C126.193 147.431 125.455 147.703 124.986 148.248C124.518 148.793 124.283 149.692 124.283 150.946V156H122.824V146.367H124.011L124.248 147.686H124.318C124.617 147.211 125.036 146.845 125.575 146.587C126.114 146.323 126.715 146.191 127.377 146.191C128.537 146.191 129.41 146.473 129.996 147.035C130.582 147.592 130.875 148.485 130.875 149.716V156H129.416ZM137.95 156.176C136.526 156.176 135.401 155.742 134.575 154.875C133.755 154.008 133.345 152.804 133.345 151.263C133.345 149.71 133.726 148.477 134.487 147.562C135.255 146.648 136.283 146.191 137.572 146.191C138.779 146.191 139.734 146.59 140.438 147.387C141.141 148.178 141.492 149.224 141.492 150.524V151.447H134.856C134.886 152.578 135.17 153.437 135.709 154.022C136.254 154.608 137.019 154.901 138.003 154.901C139.04 154.901 140.065 154.685 141.079 154.251V155.552C140.563 155.774 140.074 155.933 139.611 156.026C139.154 156.126 138.601 156.176 137.95 156.176ZM137.555 147.413C136.781 147.413 136.163 147.665 135.7 148.169C135.243 148.673 134.974 149.37 134.892 150.261H139.928C139.928 149.341 139.723 148.638 139.312 148.151C138.902 147.659 138.316 147.413 137.555 147.413ZM148.058 156.176C146.634 156.176 145.509 155.742 144.683 154.875C143.862 154.008 143.452 152.804 143.452 151.263C143.452 149.71 143.833 148.477 144.595 147.562C145.362 146.648 146.391 146.191 147.68 146.191C148.887 146.191 149.842 146.59 150.545 147.387C151.248 148.178 151.6 149.224 151.6 150.524V151.447H144.964C144.993 152.578 145.277 153.437 145.816 154.022C146.361 154.608 147.126 154.901 148.11 154.901C149.147 154.901 150.173 154.685 151.187 154.251V155.552C150.671 155.774 150.182 155.933 149.719 156.026C149.262 156.126 148.708 156.176 148.058 156.176ZM147.662 147.413C146.889 147.413 146.271 147.665 145.808 148.169C145.351 148.673 145.081 149.37 144.999 150.261H150.035C150.035 149.341 149.83 148.638 149.42 148.151C149.01 147.659 148.424 147.413 147.662 147.413ZM158.49 146.191C158.918 146.191 159.302 146.227 159.642 146.297L159.439 147.65C159.041 147.562 158.689 147.519 158.385 147.519C157.605 147.519 156.938 147.835 156.381 148.468C155.83 149.101 155.555 149.889 155.555 150.832V156H154.096V146.367H155.3L155.467 148.151H155.537C155.895 147.524 156.325 147.041 156.829 146.701C157.333 146.361 157.887 146.191 158.49 146.191ZM162.902 156H161.443V146.367H162.902V156ZM161.32 143.757C161.32 143.423 161.402 143.18 161.566 143.027C161.73 142.869 161.936 142.79 162.182 142.79C162.416 142.79 162.618 142.869 162.788 143.027C162.958 143.186 163.043 143.429 163.043 143.757C163.043 144.085 162.958 144.331 162.788 144.495C162.618 144.653 162.416 144.732 162.182 144.732C161.936 144.732 161.73 144.653 161.566 144.495C161.402 144.331 161.32 144.085 161.32 143.757ZM172.588 156V149.769C172.588 148.983 172.409 148.397 172.052 148.011C171.694 147.624 171.135 147.431 170.373 147.431C169.365 147.431 168.627 147.703 168.158 148.248C167.689 148.793 167.455 149.692 167.455 150.946V156H165.996V146.367H167.183L167.42 147.686H167.49C167.789 147.211 168.208 146.845 168.747 146.587C169.286 146.323 169.887 146.191 170.549 146.191C171.709 146.191 172.582 146.473 173.168 147.035C173.754 147.592 174.047 148.485 174.047 149.716V156H172.588ZM184.937 146.367V147.29L183.152 147.501C183.316 147.706 183.463 147.976 183.592 148.31C183.721 148.638 183.785 149.01 183.785 149.426C183.785 150.369 183.463 151.122 182.818 151.685C182.174 152.247 181.289 152.528 180.164 152.528C179.877 152.528 179.607 152.505 179.355 152.458C178.734 152.786 178.424 153.199 178.424 153.697C178.424 153.961 178.532 154.157 178.749 154.286C178.966 154.409 179.338 154.471 179.865 154.471H181.57C182.613 154.471 183.413 154.69 183.97 155.13C184.532 155.569 184.813 156.208 184.813 157.046C184.813 158.112 184.386 158.924 183.53 159.48C182.675 160.043 181.427 160.324 179.786 160.324C178.526 160.324 177.554 160.09 176.868 159.621C176.188 159.152 175.849 158.49 175.849 157.635C175.849 157.049 176.036 156.542 176.411 156.114C176.786 155.687 177.313 155.396 177.993 155.244C177.747 155.133 177.539 154.96 177.369 154.726C177.205 154.491 177.123 154.219 177.123 153.908C177.123 153.557 177.217 153.249 177.404 152.985C177.592 152.722 177.888 152.467 178.292 152.221C177.794 152.016 177.387 151.667 177.07 151.175C176.76 150.683 176.604 150.12 176.604 149.487C176.604 148.433 176.921 147.621 177.554 147.053C178.187 146.479 179.083 146.191 180.243 146.191C180.747 146.191 181.201 146.25 181.605 146.367H184.937ZM177.255 157.617C177.255 158.139 177.475 158.534 177.914 158.804C178.354 159.073 178.983 159.208 179.804 159.208C181.028 159.208 181.934 159.023 182.52 158.654C183.111 158.291 183.407 157.796 183.407 157.169C183.407 156.647 183.246 156.284 182.924 156.079C182.602 155.88 181.995 155.78 181.104 155.78H179.355C178.693 155.78 178.178 155.938 177.809 156.255C177.439 156.571 177.255 157.025 177.255 157.617ZM178.046 149.452C178.046 150.126 178.236 150.636 178.617 150.981C178.998 151.327 179.528 151.5 180.208 151.5C181.632 151.5 182.344 150.809 182.344 149.426C182.344 147.979 181.623 147.255 180.182 147.255C179.496 147.255 178.969 147.439 178.6 147.809C178.23 148.178 178.046 148.726 178.046 149.452Z" fill="black"/>
<path d="M122 61L102 51L82 61V81L102 91L122 81V61Z" stroke="#FC8F52" stroke-width="4" stroke-linejoin="round"/>
<path d="M82 61L102 71" stroke="#FC8F52" stroke-width="4" stroke-linecap="round" stroke-linejoin="round"/>
<path d="M102 91V71" stroke="#FC8F52" stroke-width="4" stroke-linecap="round" stroke-linejoin="round"/>
<path d="M122 61L102 71" stroke="#FC8F52" stroke-width="4" stroke-linecap="round" stroke-linejoin="round"/>
<path d="M112 56L92 66" stroke="#FC8F52" stroke-width="4" stroke-linecap="round" stroke-linejoin="round"/>
<defs>
<filter id="filter0_d" x="55" y="26" width="95" height="91" filterUnits="userSpaceOnUse" color-interpolation-filters="sRGB">
<feFlood flood-opacity="0" result="BackgroundImageFix"/>
<feColorMatrix in="SourceAlpha" type="matrix" values="0 0 0 0 0 0 0 0 0 0 0 0 0 0 0 0 0 0 127 0" result="hardAlpha"/>
<feOffset dx="1" dy="1"/>
<feGaussianBlur stdDeviation="5"/>
<feColorMatrix type="matrix" values="0 0 0 0 0 0 0 0 0 0 0 0 0 0 0 0 0 0 0.13 0"/>
<feBlend mode="normal" in2="BackgroundImageFix" result="effect1_dropShadow"/>
<feBlend mode="normal" in="SourceGraphic" in2="effect1_dropShadow" result="shape"/>
</filter>
</defs>
</svg>
