<svg width="318" height="334" viewBox="0 0 318 334" fill="none" xmlns="http://www.w3.org/2000/svg">
<path d="M179.422 49.9463C149.905 49.5578 120.972 58.5963 96.4558 75.8648C68.9106 95.3637 50.9118 127.768 48.7176 162.578C46.8096 193.272 53.9265 199.465 55.0776 217.394C57.3609 252.865 110.588 250.794 126.812 245.036C143.036 239.278 158.466 231.282 174.779 225.837C189.808 220.821 205.581 217.982 219.84 210.914C231.245 205.162 241.334 196.892 249.418 186.67C257.502 176.448 263.39 164.514 266.681 151.683C270.802 135.163 271.222 116.66 263.73 101.503C248.797 71.2956 215.394 57.1407 206.376 54.1414C197.688 51.2556 188.51 50.1 179.422 49.9463Z" fill="#FC8F52"/>
<path opacity="0.9" d="M179.422 49.9463C149.905 49.5578 120.972 58.5963 96.4558 75.8648C68.9106 95.3637 50.9118 127.768 48.7176 162.578C46.8096 193.272 53.9265 199.465 55.0776 217.394C57.3609 252.865 110.588 250.794 126.812 245.036C143.036 239.278 158.466 231.282 174.779 225.837C189.808 220.821 205.581 217.982 219.84 210.914C231.245 205.162 241.334 196.892 249.418 186.67C257.502 176.448 263.39 164.514 266.681 151.683C270.802 135.163 271.222 116.66 263.73 101.503C248.797 71.2956 215.394 57.1407 206.376 54.1414C197.688 51.2556 188.51 50.1 179.422 49.9463Z" fill="white"/>
<path d="M159 281.489C227.104 281.489 282.314 278.103 282.314 273.927C282.314 269.751 227.104 266.365 159 266.365C90.8956 266.365 35.686 269.751 35.686 273.927C35.686 278.103 90.8956 281.489 159 281.489Z" fill="#F5F5F5"/>
<path d="M188.58 194.181H184.612L178.258 273.212C178.241 273.421 178.266 273.631 178.331 273.83C178.395 274.028 178.498 274.21 178.634 274.365C178.769 274.519 178.933 274.643 179.116 274.727C179.298 274.811 179.496 274.855 179.695 274.855V274.855C180.048 274.855 180.388 274.718 180.652 274.472C180.916 274.226 181.084 273.887 181.126 273.519L188.58 194.181Z" fill="#263238"/>
<path opacity="0.1" d="M188.58 194.181H184.612L178.258 273.212C178.241 273.421 178.266 273.631 178.331 273.83C178.395 274.028 178.498 274.21 178.634 274.365C178.769 274.519 178.933 274.643 179.116 274.727C179.298 274.811 179.496 274.855 179.695 274.855V274.855C180.048 274.855 180.388 274.718 180.652 274.472C180.916 274.226 181.084 273.887 181.126 273.519L188.58 194.181Z" fill="white"/>
<path d="M93.1931 193.626H89.2181L82.8581 273.245C82.8413 273.454 82.866 273.664 82.9307 273.862C82.9954 274.06 83.0986 274.242 83.2338 274.396C83.369 274.55 83.5332 274.673 83.716 274.756C83.8987 274.84 84.096 274.883 84.2954 274.882V274.882C84.6481 274.881 84.9885 274.745 85.2521 274.499C85.5157 274.253 85.6845 273.914 85.7264 273.546L93.1931 193.626Z" fill="#263238"/>
<path opacity="0.1" d="M93.1931 193.626H89.2181L82.8581 273.245C82.8413 273.454 82.866 273.664 82.9307 273.862C82.9954 274.06 83.0986 274.242 83.2338 274.396C83.369 274.55 83.5332 274.673 83.716 274.756C83.8987 274.84 84.096 274.883 84.2954 274.882V274.882C84.6481 274.881 84.9885 274.745 85.2521 274.499C85.5157 274.253 85.6845 273.914 85.7264 273.546L93.1931 193.626Z" fill="white"/>
<path d="M110.798 193.626H114.766L114.881 273.486C114.881 273.888 114.729 274.274 114.458 274.558C114.187 274.842 113.82 275.002 113.437 275.002V275.002C113.058 275.001 112.694 274.843 112.425 274.563C112.155 274.284 112 273.904 111.993 273.506L110.798 193.626Z" fill="#263238"/>
<path opacity="0.2" d="M110.798 193.626H114.766L114.881 273.486C114.881 273.888 114.729 274.274 114.458 274.558C114.187 274.842 113.82 275.002 113.437 275.002V275.002C113.058 275.001 112.694 274.843 112.425 274.563C112.155 274.284 112 273.904 111.993 273.506L110.798 193.626Z" fill="white"/>
<path d="M204.913 193.626H208.888L209.002 273.486C209.002 273.888 208.85 274.274 208.579 274.558C208.309 274.842 207.941 275.002 207.559 275.002V275.002C207.179 275.001 206.816 274.843 206.546 274.563C206.276 274.284 206.122 273.904 206.115 273.506L204.913 193.626Z" fill="#263238"/>
<path opacity="0.2" d="M208.888 193.626L209.002 273.486C209.002 273.888 208.85 274.274 208.579 274.558C208.309 274.842 207.941 275.002 207.559 275.002V275.002C207.179 275.001 206.816 274.843 206.546 274.563C206.276 274.284 206.122 273.904 206.115 273.506L204.913 193.626H208.888Z" fill="white"/>
<path d="M88.0287 208.596L208.799 207.654V193.633H89.2181L88.0287 208.596Z" fill="#FC8F52"/>
<path opacity="0.3" d="M110.798 193.733L111.02 208.416L88.0287 208.596L89.2181 193.633L110.798 193.733Z" fill="black"/>
<path d="M213.461 190.26C213.461 188.376 212.787 186.846 211.96 186.84H87.4182C86.5914 186.84 85.9236 188.376 85.9172 190.26C85.9172 192.15 86.5914 193.68 87.4182 193.687H211.96C212.787 193.68 213.454 192.15 213.461 190.26Z" fill="#263238"/>
<path opacity="0.1" d="M213.461 190.26C213.461 188.376 212.787 186.846 211.96 186.84H87.4182C86.5914 186.84 85.9236 188.376 85.9172 190.26C85.9172 192.15 86.5914 193.68 87.4182 193.687H211.96C212.787 193.68 213.454 192.15 213.461 190.26Z" fill="white"/>
<path opacity="0.3" d="M118.067 190.26C118.067 188.376 117.431 186.846 116.572 186.84H87.4182C86.5914 186.84 85.9236 188.376 85.9172 190.26C85.9172 192.15 86.5914 193.68 87.4182 193.687H116.572C117.399 193.68 118.067 192.15 118.067 190.26Z" fill="black"/>
<path d="M181.438 187.187H168.356L168.655 185.697C170.054 181.749 177.202 181.749 177.202 181.749C178.977 181.856 180.707 183.6 181.203 186.038L181.438 187.187Z" fill="#FC8F52"/>
<path d="M145.135 184.983H158.275L159.84 170.554H147.908L145.135 184.983Z" fill="#263238"/>
<path d="M142.814 186.813H143.45V186.98H165.71V184.976H145.135L147.908 170.547H159.84L160.476 164.428C160.459 164.025 160.295 163.645 160.018 163.366C159.74 163.087 159.371 162.932 158.987 162.932H148.786C148.402 162.935 148.034 163.091 147.756 163.369C147.479 163.647 147.312 164.026 147.291 164.428L142.814 186.813Z" fill="#263238"/>
<path d="M145.135 184.983H158.275L159.719 171.689L159.84 170.554H147.908L145.135 184.983Z" fill="#263238"/>
<path opacity="0.1" d="M159.293 175.357L159.84 170.554H146.07L145.11 175.357H159.293Z" fill="black"/>
<path d="M165.996 185.403H167.561C167.597 185.405 167.634 185.399 167.669 185.386C167.703 185.373 167.735 185.353 167.762 185.327C167.789 185.301 167.811 185.269 167.827 185.234C167.843 185.199 167.851 185.161 167.853 185.123V183.54C167.852 183.501 167.844 183.462 167.829 183.426C167.814 183.39 167.792 183.358 167.764 183.331C167.737 183.305 167.705 183.284 167.67 183.27C167.635 183.257 167.598 183.251 167.561 183.252H166.441C166.378 183.252 166.316 183.272 166.265 183.311C166.214 183.349 166.175 183.403 166.155 183.466L165.716 185.049C165.706 185.093 165.706 185.138 165.716 185.182C165.725 185.225 165.744 185.266 165.772 185.3C165.799 185.334 165.833 185.362 165.872 185.38C165.911 185.398 165.954 185.406 165.996 185.403V185.403Z" fill="#263238"/>
<path d="M163.846 185.403H165.411C165.485 185.405 165.556 185.377 165.611 185.325C165.665 185.273 165.699 185.2 165.703 185.123V183.54C165.7 183.461 165.668 183.387 165.613 183.333C165.558 183.28 165.486 183.251 165.411 183.252H164.285C164.222 183.252 164.16 183.272 164.109 183.311C164.058 183.349 164.019 183.403 163.999 183.466L163.56 185.049C163.55 185.093 163.55 185.139 163.56 185.183C163.57 185.227 163.59 185.268 163.617 185.303C163.645 185.337 163.681 185.364 163.72 185.382C163.76 185.399 163.803 185.407 163.846 185.403V185.403Z" fill="#263238"/>
<path d="M161.69 185.403H163.249C163.323 185.407 163.397 185.38 163.453 185.327C163.508 185.275 163.543 185.201 163.547 185.123V183.54C163.546 183.5 163.537 183.461 163.521 183.426C163.505 183.39 163.482 183.358 163.455 183.331C163.427 183.304 163.394 183.284 163.359 183.27C163.324 183.257 163.286 183.251 163.249 183.252H162.129C162.066 183.251 162.004 183.271 161.952 183.309C161.901 183.348 161.862 183.403 161.843 183.466L161.404 185.049C161.394 185.093 161.394 185.139 161.404 185.183C161.414 185.227 161.434 185.268 161.461 185.303C161.489 185.337 161.525 185.364 161.564 185.382C161.604 185.399 161.647 185.407 161.69 185.403V185.403Z" fill="#263238"/>
<path d="M159.534 185.403H161.092C161.167 185.407 161.241 185.38 161.296 185.327C161.352 185.275 161.386 185.201 161.391 185.123V183.54C161.39 183.5 161.381 183.461 161.365 183.426C161.349 183.39 161.326 183.358 161.299 183.331C161.271 183.304 161.238 183.284 161.203 183.27C161.168 183.257 161.13 183.251 161.092 183.252H159.973C159.91 183.251 159.848 183.271 159.796 183.309C159.744 183.348 159.706 183.403 159.687 183.466L159.248 185.049C159.238 185.093 159.238 185.139 159.248 185.183C159.258 185.227 159.277 185.268 159.305 185.303C159.333 185.337 159.369 185.364 159.408 185.382C159.448 185.399 159.491 185.407 159.534 185.403V185.403Z" fill="#263238"/>
<path d="M157.378 185.403H158.936C159.011 185.407 159.085 185.38 159.14 185.327C159.196 185.275 159.23 185.201 159.235 185.123V183.54C159.234 183.5 159.225 183.461 159.209 183.426C159.193 183.39 159.17 183.358 159.143 183.331C159.115 183.304 159.082 183.284 159.047 183.27C159.012 183.257 158.974 183.251 158.936 183.252H157.817C157.754 183.251 157.692 183.271 157.64 183.309C157.588 183.348 157.55 183.403 157.531 183.466L157.092 185.036C157.079 185.081 157.077 185.128 157.086 185.174C157.095 185.22 157.114 185.263 157.143 185.299C157.171 185.335 157.207 185.364 157.248 185.382C157.289 185.4 157.334 185.407 157.378 185.403Z" fill="#263238"/>
<path d="M155.222 185.403H156.78C156.855 185.407 156.929 185.38 156.984 185.327C157.04 185.275 157.074 185.201 157.079 185.123V183.54C157.078 183.5 157.069 183.461 157.053 183.426C157.037 183.39 157.014 183.358 156.987 183.331C156.959 183.304 156.926 183.284 156.891 183.27C156.856 183.257 156.818 183.251 156.78 183.252H155.661C155.598 183.251 155.536 183.271 155.484 183.309C155.432 183.348 155.394 183.403 155.375 183.466L154.936 185.049C154.926 185.093 154.926 185.139 154.936 185.183C154.946 185.227 154.965 185.268 154.993 185.303C155.021 185.337 155.056 185.364 155.096 185.382C155.136 185.399 155.179 185.407 155.222 185.403Z" fill="#263238"/>
<path d="M153.066 185.403H154.624C154.699 185.407 154.772 185.38 154.828 185.327C154.884 185.275 154.918 185.201 154.923 185.123V183.54C154.922 183.5 154.913 183.461 154.897 183.426C154.881 183.39 154.858 183.358 154.831 183.331C154.803 183.304 154.77 183.284 154.735 183.27C154.699 183.257 154.662 183.251 154.624 183.252H153.505C153.442 183.251 153.38 183.271 153.328 183.309C153.276 183.348 153.238 183.403 153.219 183.466L152.774 185.049C152.765 185.094 152.766 185.14 152.776 185.184C152.787 185.228 152.808 185.268 152.836 185.303C152.864 185.337 152.9 185.364 152.94 185.381C152.98 185.399 153.023 185.406 153.066 185.403V185.403Z" fill="#263238"/>
<path d="M150.91 185.403H152.468C152.543 185.407 152.616 185.38 152.672 185.327C152.728 185.275 152.762 185.201 152.767 185.123V183.54C152.766 183.5 152.757 183.461 152.741 183.426C152.725 183.39 152.702 183.358 152.674 183.331C152.647 183.304 152.614 183.284 152.579 183.27C152.543 183.257 152.506 183.251 152.468 183.252H151.368C151.305 183.251 151.243 183.271 151.191 183.309C151.139 183.348 151.101 183.403 151.082 183.466L150.637 185.049C150.628 185.092 150.629 185.136 150.639 185.179C150.648 185.221 150.667 185.261 150.693 185.295C150.719 185.329 150.752 185.356 150.79 185.375C150.827 185.394 150.869 185.403 150.91 185.403V185.403Z" fill="#263238"/>
<path d="M148.754 185.403H150.312C150.387 185.407 150.46 185.38 150.516 185.327C150.572 185.275 150.606 185.201 150.611 185.123V183.54C150.61 183.5 150.6 183.461 150.585 183.426C150.569 183.39 150.546 183.358 150.518 183.331C150.491 183.304 150.458 183.284 150.423 183.27C150.387 183.257 150.35 183.251 150.312 183.252H149.193C149.13 183.251 149.067 183.271 149.016 183.309C148.964 183.348 148.926 183.403 148.907 183.466L148.461 185.049C148.453 185.094 148.454 185.14 148.464 185.184C148.475 185.228 148.496 185.268 148.524 185.303C148.552 185.337 148.588 185.364 148.628 185.381C148.668 185.399 148.711 185.406 148.754 185.403V185.403Z" fill="#263238"/>
<path d="M146.592 185.403H148.188C148.263 185.407 148.336 185.38 148.392 185.327C148.448 185.275 148.482 185.201 148.487 185.123V183.54C148.485 183.5 148.476 183.461 148.46 183.426C148.444 183.39 148.422 183.358 148.394 183.331C148.366 183.304 148.334 183.284 148.299 183.27C148.263 183.257 148.226 183.251 148.188 183.252H147.069C147.004 183.25 146.941 183.27 146.889 183.309C146.836 183.347 146.797 183.402 146.776 183.466L146.28 185.036C146.266 185.083 146.264 185.134 146.274 185.182C146.284 185.23 146.306 185.275 146.337 185.312C146.368 185.349 146.408 185.377 146.453 185.393C146.497 185.409 146.545 185.413 146.592 185.403Z" fill="#263238"/>
<path d="M144.436 185.403H146C146.075 185.407 146.148 185.38 146.204 185.327C146.26 185.275 146.294 185.201 146.299 185.123V183.54C146.297 183.5 146.288 183.461 146.272 183.426C146.257 183.39 146.234 183.358 146.206 183.331C146.179 183.304 146.146 183.284 146.111 183.27C146.075 183.257 146.038 183.251 146 183.252H144.881C144.817 183.25 144.754 183.27 144.701 183.309C144.648 183.347 144.609 183.402 144.588 183.466L144.149 185.049C144.139 185.093 144.139 185.139 144.149 185.183C144.159 185.227 144.179 185.268 144.207 185.303C144.235 185.337 144.27 185.364 144.31 185.382C144.349 185.399 144.393 185.407 144.436 185.403V185.403Z" fill="#263238"/>
<path d="M142.28 185.403H143.844C143.919 185.407 143.992 185.38 144.048 185.327C144.104 185.275 144.138 185.201 144.143 185.123V183.54C144.141 183.5 144.132 183.461 144.116 183.426C144.101 183.39 144.078 183.358 144.05 183.331C144.023 183.304 143.99 183.284 143.955 183.27C143.919 183.257 143.882 183.251 143.844 183.252H142.725C142.661 183.25 142.598 183.27 142.545 183.309C142.492 183.347 142.453 183.402 142.432 183.466L141.993 185.049C141.983 185.093 141.983 185.139 141.993 185.183C142.003 185.227 142.023 185.268 142.051 185.303C142.079 185.337 142.114 185.364 142.154 185.382C142.193 185.399 142.237 185.407 142.28 185.403V185.403Z" fill="#263238"/>
<path d="M140.124 185.403H141.688C141.762 185.405 141.834 185.377 141.888 185.325C141.943 185.273 141.976 185.2 141.981 185.123V183.54C141.977 183.461 141.945 183.387 141.89 183.333C141.835 183.28 141.763 183.251 141.688 183.252H140.556C140.493 183.252 140.431 183.272 140.38 183.311C140.328 183.349 140.29 183.403 140.27 183.466L139.831 185.049C139.821 185.094 139.821 185.141 139.831 185.185C139.841 185.23 139.861 185.271 139.89 185.306C139.919 185.34 139.955 185.367 139.995 185.384C140.036 185.401 140.08 185.408 140.124 185.403V185.403Z" fill="#263238"/>
<path d="M137.967 185.403H139.532C139.606 185.405 139.677 185.377 139.732 185.325C139.787 185.273 139.82 185.2 139.825 185.123V183.54C139.821 183.461 139.789 183.387 139.734 183.333C139.679 183.28 139.607 183.251 139.532 183.252H138.406C138.343 183.252 138.282 183.272 138.23 183.311C138.179 183.349 138.14 183.403 138.12 183.466L137.681 185.049C137.671 185.093 137.671 185.139 137.681 185.183C137.691 185.227 137.711 185.268 137.739 185.303C137.766 185.337 137.802 185.364 137.842 185.382C137.881 185.399 137.924 185.407 137.967 185.403V185.403Z" fill="#263238"/>
<path d="M135.811 185.403H137.376C137.451 185.407 137.524 185.38 137.58 185.327C137.636 185.275 137.67 185.201 137.675 185.123V183.54C137.673 183.5 137.664 183.461 137.648 183.426C137.632 183.39 137.61 183.358 137.582 183.331C137.554 183.304 137.522 183.284 137.487 183.27C137.451 183.257 137.414 183.251 137.376 183.252H136.257C136.193 183.251 136.131 183.271 136.08 183.309C136.028 183.348 135.99 183.403 135.97 183.466L135.532 185.049C135.522 185.093 135.522 185.138 135.531 185.182C135.541 185.225 135.56 185.266 135.587 185.3C135.614 185.334 135.649 185.362 135.688 185.38C135.727 185.398 135.769 185.406 135.811 185.403Z" fill="#263238"/>
<path d="M134.241 185.577C134.263 185.915 134.407 186.231 134.643 186.462C134.879 186.693 135.19 186.82 135.513 186.82H167.802C168.13 186.829 168.449 186.705 168.692 186.473C168.935 186.242 169.083 185.921 169.106 185.577C169.106 185.41 169.072 185.245 169.006 185.093C168.94 184.941 168.844 184.805 168.724 184.695C168.48 184.465 168.163 184.336 167.834 184.335H135.538C135.418 184.332 135.298 184.348 135.182 184.381C134.921 184.443 134.687 184.594 134.517 184.811C134.347 185.027 134.249 185.296 134.241 185.577Z" fill="#263238"/>
<path opacity="0.2" d="M134.241 185.577C134.263 185.915 134.407 186.231 134.643 186.462C134.879 186.693 135.19 186.82 135.513 186.82H167.802C168.13 186.829 168.449 186.705 168.692 186.473C168.935 186.242 169.083 185.921 169.106 185.577C169.106 185.41 169.072 185.245 169.006 185.093C168.94 184.941 168.844 184.805 168.724 184.695C168.48 184.465 168.163 184.336 167.834 184.335H135.538C135.418 184.332 135.298 184.348 135.182 184.381C134.921 184.443 134.687 184.594 134.517 184.811C134.347 185.027 134.249 185.296 134.241 185.577Z" fill="white"/>
<path d="M134.241 185.577C134.263 185.915 134.407 186.231 134.643 186.462C134.879 186.693 135.19 186.82 135.513 186.82H146.471C146.724 186.751 146.949 186.598 147.112 186.384C147.275 186.169 147.367 185.905 147.374 185.63C147.381 185.557 147.381 185.483 147.374 185.41C147.324 185.152 147.197 184.918 147.011 184.742C146.926 184.662 146.832 184.592 146.732 184.535L146.579 184.461C146.42 184.402 146.252 184.372 146.083 184.375H135.182C134.92 184.437 134.685 184.589 134.515 184.806C134.345 185.024 134.248 185.295 134.241 185.577Z" fill="#263238"/>
<path d="M124.949 130.026H128.249L131.957 172.291H128.656C128.367 172.265 128.096 172.129 127.895 171.909C127.694 171.689 127.575 171.4 127.563 171.095L124.065 131.222C124.039 131.081 124.042 130.936 124.074 130.797C124.106 130.658 124.166 130.527 124.249 130.414C124.333 130.301 124.439 130.208 124.559 130.141C124.68 130.074 124.812 130.035 124.949 130.026V130.026Z" fill="#FC8F52"/>
<path opacity="0.3" d="M124.949 130.026H128.249L131.957 172.291H128.656C128.367 172.265 128.096 172.129 127.895 171.909C127.694 171.689 127.575 171.4 127.563 171.095L124.065 131.222C124.039 131.081 124.042 130.936 124.074 130.797C124.106 130.658 124.166 130.527 124.249 130.414C124.333 130.301 124.439 130.208 124.559 130.141C124.68 130.074 124.812 130.035 124.949 130.026V130.026Z" fill="black"/>
<path d="M130.049 172.291H179.505C179.641 172.282 179.773 172.243 179.894 172.176C180.015 172.109 180.12 172.016 180.204 171.902C180.287 171.789 180.347 171.659 180.379 171.52C180.411 171.38 180.414 171.236 180.389 171.095L176.891 131.222C176.878 130.917 176.76 130.628 176.558 130.407C176.357 130.187 176.086 130.052 175.797 130.026H126.341C126.205 130.035 126.073 130.074 125.952 130.141C125.831 130.208 125.726 130.301 125.642 130.414C125.559 130.527 125.499 130.658 125.467 130.797C125.435 130.936 125.432 131.081 125.457 131.222L128.955 171.095C128.968 171.4 129.086 171.689 129.288 171.909C129.489 172.129 129.76 172.265 130.049 172.291V172.291Z" fill="#FC8F52"/>
<path d="M131.544 163.814H176.458L173.965 133.907H129.051L131.544 163.814Z" fill="#FC8F52"/>
<path d="M132.161 166.152H176.42C176.711 166.157 177 166.098 177.268 165.977C177.535 165.856 177.775 165.677 177.972 165.452C178.168 165.226 178.317 164.959 178.408 164.669C178.499 164.378 178.53 164.071 178.5 163.767L176.019 134.048C175.955 133.402 175.669 132.804 175.215 132.364C174.76 131.923 174.169 131.672 173.552 131.656H129.286C128.995 131.651 128.706 131.712 128.439 131.833C128.172 131.955 127.932 132.135 127.736 132.361C127.54 132.587 127.392 132.854 127.302 133.145C127.211 133.436 127.181 133.743 127.213 134.048L129.687 163.767C129.753 164.412 130.041 165.01 130.496 165.449C130.951 165.888 131.543 166.138 132.161 166.152V166.152Z" fill="#263238"/>
<path d="M131.544 163.814H176.458L173.965 133.907H129.051L131.544 163.814Z" fill="#FC8F52"/>
<path opacity="0.4" d="M131.544 163.814H176.458L173.965 133.907H129.051L131.544 163.814Z" fill="white"/>
<path d="M146.28 135.544L148.449 161.596H131.957L129.782 135.544H146.28ZM146.865 134.876H129.108L129.172 135.604L131.34 161.656L131.391 162.271H149.129L149.072 161.542L146.903 135.49L146.852 134.883L146.865 134.876Z" fill="#FC8F52"/>
<path d="M148.417 161.596H131.951L129.782 135.544H146.248L148.417 161.596Z" fill="white"/>
<path d="M136.797 143.506H131.786L131.239 136.893H136.244L136.797 143.506Z" fill="#FC8F52"/>
<g opacity="0.2">
<path opacity="0.2" d="M131.83 136.893H131.239L131.665 142.023H131.824V141.649H132.25V142.023H132.415L131.989 136.893H131.83ZM131.627 139.645L131.569 138.897H131.995L132.059 139.645H131.627ZM132.072 139.812L132.135 140.561H131.703L131.652 139.812H132.072ZM131.55 138.73L131.493 137.982H131.919L131.983 138.73H131.55ZM131.474 137.808L131.417 137.067H131.843L131.906 137.808H131.474ZM131.779 141.476L131.722 140.734H132.148L132.212 141.476H131.779Z" fill="black"/>
</g>
<g opacity="0.2">
<path opacity="0.2" d="M136.104 136.893H135.468L135.894 142.023H136.104L136.072 141.649H136.505V142.023H136.67L136.244 136.893H136.104ZM135.907 139.645L135.843 138.897H136.276L136.333 139.645H135.907ZM136.352 139.812L136.409 140.561H135.983L135.92 139.812H136.352ZM135.831 138.73L135.767 137.982H136.199L136.257 138.73H135.831ZM135.754 137.808L135.691 137.067H136.104L136.161 137.808H135.754ZM136.059 141.476L135.996 140.734H136.428L136.486 141.476H136.059Z" fill="black"/>
</g>
<path opacity="0.2" d="M135.913 142.017L132.422 142.023L131.995 136.893H135.487L135.913 142.017Z" fill="white"/>
<path opacity="0.2" d="M135.404 139.525C135.43 139.719 135.414 139.917 135.359 140.103C135.304 140.29 135.21 140.462 135.084 140.607C134.959 140.752 134.804 140.866 134.632 140.941C134.46 141.016 134.274 141.05 134.088 141.042C133.694 141.036 133.315 140.878 133.025 140.598C132.734 140.319 132.551 139.937 132.511 139.525C132.491 139.332 132.51 139.136 132.568 138.951C132.626 138.766 132.72 138.596 132.846 138.453C132.971 138.309 133.124 138.195 133.294 138.119C133.464 138.042 133.648 138.005 133.833 138.009C134.226 138.016 134.603 138.175 134.893 138.454C135.182 138.734 135.364 139.114 135.404 139.525Z" fill="white"/>
<path d="M133.503 138.73L134.775 139.612L133.649 140.487L133.503 138.73Z" fill="white"/>
<path d="M137.484 151.79H132.479L131.925 145.183H136.931L137.484 151.79Z" fill="#FC8F52"/>
<g opacity="0.2">
<path opacity="0.2" d="M132.523 145.176H131.925L132.352 150.307H132.517L132.485 149.933H132.924V150.307H133.083L132.657 145.176H132.523ZM132.32 147.929L132.256 147.187H132.689L132.752 147.929H132.32ZM132.765 148.102L132.829 148.85H132.396L132.333 148.102H132.765ZM132.243 147.013L132.18 146.265H132.612L132.676 147.013H132.243ZM132.167 146.098L132.104 145.35H132.536L132.6 146.098H132.167ZM132.472 149.766L132.409 149.017H132.841L132.905 149.766H132.472Z" fill="black"/>
</g>
<g opacity="0.2">
<path opacity="0.2" d="M136.772 145.176H136.174L136.606 150.307H136.74V149.933H137.172L137.204 150.307H137.376L136.944 145.176H136.772ZM136.568 147.929L136.505 147.187H136.937L137.001 147.929H136.568ZM137.013 148.102L137.077 148.85H136.645L136.581 148.102H137.013ZM136.492 147.013L136.428 146.265H136.861L136.924 147.013H136.492ZM136.416 146.098L136.352 145.35H136.785L136.848 146.098H136.416ZM136.721 149.766L136.657 149.017H137.09L137.153 149.766H136.721Z" fill="black"/>
</g>
<path opacity="0.2" d="M136.6 150.3L133.108 150.307L132.682 145.183H136.18L136.6 150.3Z" fill="white"/>
<path opacity="0.2" d="M136.104 147.808C136.125 148.002 136.106 148.199 136.049 148.384C135.991 148.57 135.897 148.741 135.772 148.885C135.646 149.029 135.493 149.144 135.322 149.221C135.151 149.298 134.967 149.335 134.781 149.331C134.388 149.322 134.011 149.162 133.721 148.882C133.432 148.601 133.25 148.22 133.21 147.808C133.185 147.614 133.2 147.417 133.256 147.23C133.311 147.043 133.405 146.871 133.53 146.726C133.656 146.582 133.81 146.468 133.983 146.393C134.155 146.318 134.34 146.283 134.527 146.292C134.92 146.299 135.298 146.458 135.588 146.737C135.879 147.016 136.062 147.397 136.104 147.808V147.808Z" fill="white"/>
<path d="M134.196 147.02L135.468 147.895L134.342 148.777L134.196 147.02Z" fill="white"/>
<path d="M143.361 143.506H138.355L137.802 136.893H142.814L143.361 143.506Z" fill="#FC8F52"/>
<g opacity="0.2">
<path opacity="0.2" d="M138.4 136.893H137.802L138.235 142.023H138.394V141.649H138.826L138.858 142.023H139.023L138.591 136.893H138.4ZM138.196 139.645L138.133 138.897H138.565L138.629 139.645H138.196ZM138.642 139.819L138.705 140.561H138.273L138.209 139.819H138.642ZM138.12 138.73L138.057 137.982H138.489L138.553 138.73H138.12ZM138.044 137.808L137.98 137.067H138.413L138.476 137.808H138.044ZM138.349 141.482L138.285 140.734H138.718L138.782 141.482H138.349Z" fill="black"/>
</g>
<g opacity="0.2">
<path opacity="0.2" d="M142.648 136.893H142.057L142.483 142.023H142.642V141.649H143.068L143.1 142.023H143.265L142.839 136.893H142.648ZM142.445 139.645L142.388 138.897H142.814L142.877 139.645H142.445ZM142.89 139.819L142.954 140.561H142.521L142.464 139.819H142.89ZM142.369 138.73L142.311 137.982H142.738L142.801 138.73H142.369ZM142.292 137.808L142.235 137.067H142.661L142.725 137.808H142.292ZM142.598 141.482L142.54 140.734H142.966L143.03 141.482H142.598Z" fill="black"/>
</g>
<path opacity="0.2" d="M142.483 142.017L138.985 142.023L138.559 136.893H142.057L142.483 142.017Z" fill="white"/>
<path opacity="0.2" d="M141.974 139.525C142 139.72 141.984 139.918 141.928 140.105C141.873 140.293 141.778 140.465 141.652 140.61C141.526 140.754 141.371 140.868 141.198 140.943C141.025 141.018 140.838 141.051 140.651 141.041C140.258 141.034 139.882 140.875 139.592 140.596C139.303 140.317 139.121 139.936 139.08 139.525C139.061 139.332 139.08 139.136 139.138 138.951C139.196 138.766 139.29 138.596 139.415 138.453C139.541 138.309 139.694 138.195 139.864 138.119C140.034 138.042 140.218 138.005 140.403 138.009C140.796 138.016 141.173 138.175 141.463 138.454C141.752 138.734 141.934 139.114 141.974 139.525Z" fill="white"/>
<path d="M140.073 138.73L141.345 139.612L140.219 140.487L140.073 138.73Z" fill="white"/>
<path d="M138.177 160.08H133.166L132.619 153.466H137.624L138.177 160.08Z" fill="#FC8F52"/>
<g opacity="0.2">
<path opacity="0.2" d="M133.21 153.466H132.619L133.045 158.597H133.204V158.222H133.63L133.662 158.597H133.827L133.401 153.466H133.21ZM133.007 156.218L132.949 155.47H133.376L133.439 156.218H133.007ZM133.452 156.385L133.515 157.134H133.083L133.026 156.385H133.452ZM132.93 155.297L132.873 154.555H133.299L133.363 155.297H132.93ZM132.854 154.381L132.797 153.64H133.223L133.287 154.388L132.854 154.381ZM133.159 158.049L133.102 157.301H133.56L133.624 158.049H133.159Z" fill="black"/>
</g>
<g opacity="0.2">
<path opacity="0.2" d="M137.459 153.466H136.867L137.293 158.597H137.459V158.222H137.891L137.923 158.597H138.082L137.656 153.466H137.459ZM137.262 156.218L137.198 155.47H137.63L137.688 156.218H137.262ZM137.707 156.385L137.764 157.134H137.338L137.274 156.385H137.707ZM137.185 155.297L137.122 154.555H137.554L137.611 155.297H137.185ZM137.109 154.381L137.045 153.633H137.478L137.535 154.381H137.109ZM137.414 158.049L137.351 157.301H137.783L137.84 158.049H137.414Z" fill="black"/>
</g>
<path opacity="0.2" d="M137.293 158.59L133.802 158.597L133.376 153.466H136.867L137.293 158.59Z" fill="white"/>
<path opacity="0.2" d="M136.785 156.098C136.815 156.295 136.803 156.496 136.75 156.687C136.697 156.878 136.604 157.054 136.478 157.203C136.352 157.352 136.196 157.469 136.021 157.546C135.846 157.623 135.657 157.658 135.468 157.648C135.074 157.641 134.697 157.482 134.406 157.203C134.116 156.924 133.933 156.543 133.891 156.132C133.871 155.938 133.89 155.742 133.948 155.558C134.006 155.373 134.101 155.203 134.226 155.059C134.351 154.916 134.504 154.802 134.674 154.725C134.844 154.649 135.028 154.611 135.214 154.615C135.602 154.622 135.974 154.776 136.263 155.048C136.552 155.321 136.737 155.694 136.785 156.098Z" fill="white"/>
<path d="M134.883 155.303L136.161 156.178L135.029 157.06L134.883 155.303Z" fill="white"/>
<path opacity="0.1" d="M144.467 131.676L135.691 166.138H138.648L147.323 131.676H144.467Z" fill="white"/>
<path opacity="0.1" d="M149.021 131.676L140.251 166.138H146.102L154.777 131.676H149.021Z" fill="white"/>
<path d="M175.364 157.374H146.827L145.351 139.672H173.889L175.364 157.374Z" fill="#263238"/>
<path d="M163.719 146.573C163.772 147.048 163.727 147.529 163.588 147.985C163.448 148.44 163.217 148.858 162.91 149.212C162.603 149.565 162.227 149.845 161.809 150.033C161.39 150.221 160.937 150.312 160.482 150.3C159.516 150.281 158.59 149.891 157.879 149.205C157.168 148.518 156.721 147.582 156.621 146.573C156.567 146.097 156.611 145.615 156.751 145.158C156.89 144.702 157.121 144.283 157.428 143.929C157.735 143.574 158.111 143.294 158.53 143.106C158.95 142.918 159.403 142.826 159.859 142.838C160.826 142.856 161.753 143.246 162.465 143.935C163.176 144.623 163.623 145.562 163.719 146.573V146.573Z" fill="white"/>
<path d="M162.116 146.706L159.013 144.916L159.312 148.503L162.116 146.706Z" fill="#263238"/>
<path d="M174.696 153.9H146.916L146.865 153.326H174.646L174.696 153.9Z" fill="white"/>
<path d="M162.485 153.9H146.916L146.865 153.326H162.441L162.485 153.9Z" fill="#FC8F52"/>
<path d="M147.393 156.031H147.126L147.031 154.923H147.298L147.393 156.031Z" fill="white"/>
<path d="M147.857 156.031H147.59L147.501 154.923H147.768L147.857 156.031Z" fill="white"/>
<path d="M150.268 156.031H149.212L149.123 154.923H150.179L150.268 156.031Z" fill="white"/>
<path d="M151.667 155.477L152.532 154.923L152.621 156.031L151.667 155.477Z" fill="white"/>
<path d="M151.711 156.031H151.444L151.349 154.923H151.616L151.711 156.031Z" fill="white"/>
<path d="M154.618 155.477L153.664 154.923L153.753 156.031L154.618 155.477Z" fill="white"/>
<path d="M154.669 156.031H154.936L154.841 154.923H154.573L154.669 156.031Z" fill="white"/>
<path d="M156.577 154.902L156.106 155.57H157.162L156.577 154.902Z" fill="white"/>
<path d="M157.219 156.051L157.2 155.771H156.106L156.132 156.051H157.219Z" fill="white"/>
<path d="M174.9 156.118H172.865L172.757 154.782H174.786L174.9 156.118ZM173.024 155.938H174.709L174.633 154.996H172.948L173.024 155.938Z" fill="white"/>
<path d="M171.364 156.118H170.95L170.919 155.737L171.09 155.724L171.109 155.938H171.364V156.118Z" fill="white"/>
<path d="M172.273 156.118H171.86V155.938H172.089L172.07 155.737L172.242 155.724L172.273 156.118Z" fill="white"/>
<path d="M172.032 155.23L172.006 154.996H171.771V154.816H172.165L172.197 155.216L172.032 155.23Z" fill="white"/>
<path d="M170.881 155.23L170.842 154.816H171.268V154.996H171.033L171.052 155.216L170.881 155.23Z" fill="white"/>
<path opacity="0.1" d="M150.681 139.672H153.906L150.083 157.374H146.821L150.681 139.672Z" fill="white" stroke="#263238" stroke-linecap="round" stroke-linejoin="round"/>
<path opacity="0.1" d="M166.721 157.374L170.582 139.672H173.812L169.99 157.374H166.721Z" fill="white" stroke="#263238" stroke-linecap="round" stroke-linejoin="round"/>
<g opacity="0.1">
<path d="M174.067 141.823L171.561 153.326L171.434 153.901L171.218 154.903L171.014 155.824L170.677 157.374H171.517L172.051 154.903L172.267 153.901L172.388 153.326L174.289 144.528" fill="white"/>
<path d="M174.067 141.823L171.561 153.326L171.434 153.901L171.218 154.903L171.014 155.824L170.677 157.374H171.517L172.051 154.903L172.267 153.901L172.388 153.326L174.289 144.528" stroke="#263238" stroke-linecap="round" stroke-linejoin="round"/>
</g>
<path d="M173.889 139.672H145.351L145.218 138.069H173.755L173.889 139.672Z" fill="#FC8F52"/>
<path d="M147.374 138.884C147.38 138.947 147.374 139.011 147.355 139.071C147.336 139.131 147.305 139.187 147.264 139.234C147.223 139.28 147.173 139.317 147.117 139.342C147.062 139.367 147.002 139.379 146.941 139.378C146.813 139.377 146.69 139.326 146.596 139.234C146.502 139.143 146.444 139.018 146.433 138.884C146.426 138.821 146.433 138.758 146.451 138.698C146.47 138.638 146.5 138.583 146.541 138.537C146.581 138.49 146.63 138.453 146.685 138.427C146.74 138.402 146.799 138.389 146.859 138.39C146.987 138.392 147.11 138.444 147.205 138.535C147.3 138.626 147.36 138.75 147.374 138.884V138.884Z" fill="white"/>
<path d="M148.786 138.884C148.792 138.947 148.786 139.011 148.767 139.071C148.748 139.131 148.717 139.187 148.676 139.234C148.635 139.28 148.585 139.317 148.529 139.342C148.474 139.367 148.414 139.379 148.353 139.378C148.225 139.377 148.102 139.326 148.008 139.234C147.914 139.143 147.856 139.018 147.845 138.884C147.837 138.821 147.843 138.757 147.861 138.697C147.879 138.637 147.91 138.581 147.95 138.534C147.99 138.488 148.04 138.45 148.095 138.425C148.151 138.4 148.21 138.388 148.271 138.39C148.399 138.392 148.522 138.444 148.617 138.535C148.712 138.626 148.772 138.75 148.786 138.884V138.884Z" fill="white"/>
<path d="M150.191 138.884C150.199 138.947 150.193 139.01 150.175 139.071C150.157 139.131 150.126 139.186 150.086 139.233C150.046 139.28 149.996 139.317 149.941 139.342C149.885 139.367 149.826 139.38 149.765 139.378C149.637 139.376 149.514 139.324 149.419 139.233C149.324 139.142 149.264 139.018 149.25 138.884C149.244 138.821 149.25 138.757 149.269 138.697C149.288 138.636 149.319 138.581 149.36 138.534C149.401 138.487 149.451 138.45 149.507 138.425C149.562 138.4 149.622 138.388 149.683 138.39C149.811 138.391 149.934 138.442 150.028 138.533C150.122 138.625 150.18 138.75 150.191 138.884V138.884Z" fill="white"/>
<path d="M120.28 186.84H103.967L99.7121 135.677H116.019L120.28 186.84Z" fill="#FC8F52"/>
<path opacity="0.3" d="M120.28 186.84H103.967L99.7121 135.677H116.019L120.28 186.84Z" fill="black"/>
<path d="M121.883 186.84H105.57L101.308 135.677H117.622L121.883 186.84Z" fill="#FC8F52"/>
<path opacity="0.5" d="M109.99 139.612C109.195 139.597 108.406 139.759 107.675 140.089C106.944 140.419 106.289 140.909 105.753 141.526C105.217 142.143 104.812 142.873 104.565 143.667C104.319 144.461 104.236 145.301 104.323 146.132C104.497 147.897 105.28 149.535 106.524 150.736C107.768 151.937 109.388 152.618 111.077 152.651C111.872 152.666 112.661 152.502 113.39 152.172C114.12 151.841 114.775 151.351 115.31 150.735C115.846 150.118 116.25 149.388 116.496 148.595C116.742 147.801 116.825 146.961 116.738 146.132C116.567 144.366 115.786 142.728 114.542 141.526C113.299 140.325 111.679 139.644 109.99 139.612Z" fill="black"/>
<path d="M108.851 146.573C108.898 147.074 109.118 147.539 109.47 147.882C109.821 148.224 110.28 148.419 110.759 148.43C110.986 148.434 111.21 148.388 111.418 148.293C111.626 148.199 111.812 148.06 111.964 147.884C112.117 147.708 112.232 147.5 112.301 147.274C112.371 147.048 112.394 146.809 112.368 146.573C112.318 146.074 112.096 145.611 111.746 145.271C111.395 144.93 110.938 144.736 110.461 144.722C110.235 144.718 110.011 144.764 109.804 144.858C109.596 144.952 109.41 145.091 109.258 145.266C109.106 145.441 108.991 145.648 108.921 145.873C108.851 146.098 108.827 146.337 108.851 146.573V146.573Z" fill="#FC8F52"/>
<path opacity="0.5" d="M108.61 158.85C108.694 159.712 109.075 160.511 109.682 161.097C110.289 161.683 111.08 162.015 111.904 162.03C112.292 162.037 112.676 161.958 113.032 161.797C113.388 161.635 113.708 161.396 113.969 161.096C114.23 160.795 114.427 160.439 114.547 160.052C114.667 159.665 114.707 159.255 114.664 158.85C114.581 157.988 114.199 157.188 113.592 156.601C112.985 156.014 112.195 155.681 111.37 155.664V155.664C110.982 155.658 110.597 155.738 110.241 155.9C109.885 156.062 109.566 156.302 109.305 156.603C109.044 156.904 108.847 157.261 108.727 157.648C108.607 158.036 108.567 158.445 108.61 158.85V158.85Z" fill="black"/>
<path opacity="0.5" d="M109.685 167C109.755 167.745 110.083 168.437 110.607 168.945C111.131 169.452 111.815 169.739 112.528 169.752C112.863 169.759 113.197 169.691 113.505 169.551C113.814 169.412 114.09 169.205 114.317 168.945C114.543 168.684 114.714 168.376 114.818 168.041C114.922 167.705 114.956 167.351 114.919 167C114.846 166.255 114.516 165.564 113.991 165.057C113.466 164.55 112.783 164.262 112.07 164.248C111.734 164.242 111.402 164.311 111.094 164.451C110.786 164.59 110.51 164.797 110.285 165.058C110.059 165.318 109.889 165.626 109.785 165.961C109.682 166.296 109.647 166.65 109.685 167V167Z" fill="black"/>
<path opacity="0.5" d="M110.702 174.495C110.764 175.123 111.043 175.706 111.486 176.133C111.929 176.56 112.505 176.802 113.106 176.813C113.389 176.819 113.669 176.761 113.929 176.643C114.188 176.526 114.421 176.352 114.611 176.132C114.802 175.913 114.945 175.653 115.032 175.371C115.119 175.089 115.148 174.79 115.116 174.495C115.057 173.867 114.78 173.284 114.338 172.856C113.895 172.429 113.319 172.187 112.718 172.177V172.177C112.436 172.171 112.155 172.229 111.895 172.346C111.635 172.464 111.402 172.638 111.211 172.857C111.021 173.077 110.876 173.336 110.789 173.618C110.701 173.901 110.671 174.2 110.702 174.495Z" fill="black"/>
<path opacity="0.5" d="M111.612 180.707C111.663 181.218 111.89 181.692 112.251 182.039C112.612 182.386 113.081 182.583 113.571 182.591C113.801 182.596 114.029 182.55 114.241 182.455C114.452 182.36 114.642 182.218 114.798 182.04C114.953 181.862 115.07 181.651 115.142 181.421C115.213 181.191 115.237 180.948 115.211 180.707C115.163 180.195 114.937 179.718 114.575 179.37C114.214 179.021 113.743 178.824 113.253 178.817V178.817C113.022 178.813 112.793 178.86 112.582 178.956C112.37 179.051 112.18 179.194 112.025 179.372C111.87 179.551 111.753 179.763 111.681 179.993C111.61 180.223 111.586 180.467 111.612 180.707Z" fill="black"/>
<path d="M203.31 186.773H186.997L182.736 135.611H199.049L203.31 186.773Z" fill="#FC8F52"/>
<path opacity="0.3" d="M203.31 186.773H186.997L182.736 135.611H199.049L203.31 186.773Z" fill="black"/>
<path d="M204.913 186.773H188.599L184.338 135.611H200.652L204.913 186.773Z" fill="#FC8F52"/>
<path opacity="0.5" d="M193.02 139.545C192.225 139.53 191.435 139.692 190.705 140.023C189.974 140.353 189.319 140.842 188.783 141.459C188.247 142.076 187.842 142.806 187.595 143.6C187.349 144.394 187.266 145.235 187.353 146.065C187.527 147.83 188.309 149.468 189.554 150.669C190.798 151.87 192.418 152.552 194.107 152.585C194.902 152.599 195.69 152.436 196.42 152.105C197.15 151.775 197.804 151.285 198.34 150.668C198.875 150.051 199.28 149.322 199.526 148.528C199.772 147.734 199.854 146.895 199.768 146.065C199.597 144.299 198.816 142.661 197.572 141.459C196.329 140.258 194.709 139.577 193.02 139.545V139.545Z" fill="black"/>
<path d="M191.881 146.512C191.929 147.012 192.15 147.477 192.501 147.817C192.853 148.158 193.311 148.352 193.789 148.363C194.015 148.367 194.239 148.321 194.446 148.227C194.653 148.133 194.839 147.994 194.992 147.819C195.144 147.644 195.259 147.437 195.329 147.212C195.399 146.987 195.423 146.748 195.398 146.512C195.349 146.012 195.128 145.548 194.777 145.207C194.426 144.865 193.969 144.669 193.49 144.655C193.264 144.651 193.04 144.697 192.832 144.792C192.624 144.886 192.438 145.025 192.285 145.201C192.133 145.377 192.018 145.585 191.948 145.811C191.879 146.037 191.856 146.276 191.881 146.512V146.512Z" fill="#FC8F52"/>
<path opacity="0.5" d="M191.64 158.784C191.723 159.645 192.105 160.444 192.712 161.03C193.319 161.616 194.11 161.948 194.934 161.963C195.322 161.97 195.706 161.891 196.062 161.73C196.418 161.569 196.737 161.33 196.998 161.029C197.26 160.728 197.457 160.372 197.577 159.985C197.697 159.598 197.737 159.188 197.694 158.784C197.61 157.922 197.229 157.123 196.622 156.537C196.015 155.951 195.224 155.619 194.4 155.604V155.604C194.012 155.597 193.628 155.676 193.272 155.837C192.916 155.999 192.596 156.238 192.335 156.538C192.074 156.839 191.877 157.195 191.757 157.582C191.637 157.969 191.597 158.379 191.64 158.784V158.784Z" fill="black"/>
<path opacity="0.5" d="M192.708 166.927C192.778 167.672 193.106 168.364 193.631 168.871C194.155 169.378 194.838 169.666 195.551 169.679C195.887 169.686 196.22 169.617 196.528 169.478C196.837 169.339 197.114 169.132 197.34 168.871C197.566 168.611 197.737 168.303 197.841 167.967C197.945 167.632 197.979 167.277 197.942 166.927C197.869 166.182 197.539 165.492 197.014 164.986C196.489 164.48 195.805 164.193 195.093 164.181V164.181C194.758 164.174 194.426 164.242 194.118 164.381C193.81 164.52 193.534 164.726 193.308 164.986C193.083 165.246 192.912 165.554 192.809 165.888C192.705 166.223 192.671 166.577 192.708 166.927V166.927Z" fill="black"/>
<path opacity="0.5" d="M193.732 174.428C193.794 175.056 194.073 175.639 194.516 176.066C194.959 176.493 195.535 176.735 196.136 176.746C196.419 176.752 196.699 176.694 196.959 176.577C197.218 176.459 197.451 176.285 197.641 176.066C197.831 175.846 197.975 175.586 198.062 175.304C198.149 175.022 198.178 174.723 198.146 174.428C198.087 173.8 197.81 173.217 197.367 172.789C196.925 172.362 196.349 172.12 195.748 172.11C195.465 172.105 195.185 172.162 194.925 172.28C194.665 172.397 194.432 172.571 194.241 172.79C194.05 173.01 193.906 173.269 193.818 173.552C193.731 173.834 193.701 174.133 193.732 174.428V174.428Z" fill="black"/>
<path opacity="0.5" d="M194.616 180.641C194.667 181.152 194.894 181.627 195.255 181.975C195.616 182.323 196.085 182.521 196.575 182.531C196.805 182.535 197.034 182.488 197.246 182.392C197.457 182.296 197.647 182.154 197.802 181.975C197.958 181.797 198.075 181.585 198.146 181.355C198.217 181.125 198.241 180.881 198.216 180.641C198.166 180.128 197.939 179.653 197.578 179.305C197.217 178.956 196.747 178.759 196.257 178.75V178.75C196.027 178.747 195.799 178.795 195.587 178.891C195.376 178.987 195.187 179.129 195.032 179.308C194.877 179.487 194.76 179.698 194.688 179.927C194.616 180.157 194.592 180.4 194.616 180.641V180.641Z" fill="black"/>
<path d="M73.3181 120.434L70.348 68.7305C70.348 68.6637 70.348 68.5969 70.348 68.5301C70.3547 67.8722 70.6095 67.244 71.0566 66.7832C71.5037 66.3223 72.1066 66.0666 72.733 66.0719L203.87 65.7579C204.556 65.7679 205.213 66.0481 205.711 66.543C206.209 67.0379 206.512 67.7114 206.56 68.4299L209.53 120.133C209.53 120.2 209.53 120.273 209.53 120.34C209.527 120.666 209.463 120.987 209.341 121.287C209.219 121.586 209.043 121.857 208.821 122.085C208.6 122.312 208.338 122.492 208.05 122.613C207.763 122.735 207.455 122.795 207.145 122.792L76.002 123.106C75.3174 123.094 74.6618 122.813 74.1649 122.318C73.6679 121.824 73.3658 121.151 73.3181 120.434V120.434Z" fill="white"/>
<path d="M122.01 66.3324H86.0126L85.9872 66.0452L121.978 65.9517L122.01 66.3324Z" fill="white"/>
<path d="M209.53 120.327C209.522 120.984 209.266 121.61 208.819 122.07C208.372 122.529 207.771 122.784 207.145 122.778L76.002 123.092C75.3169 123.082 74.6606 122.802 74.1633 122.307C73.6661 121.812 73.3643 121.138 73.3181 120.42L70.348 68.7172C70.348 68.6504 70.348 68.5769 70.348 68.5101C70.3563 67.8527 70.6117 67.2255 71.0584 66.7651C71.5052 66.3046 72.1071 66.0483 72.733 66.0518H82.8136L82.61 63.5869C82.5557 63.0697 82.607 62.5462 82.7605 62.0514C82.914 61.5566 83.1662 61.1019 83.5002 60.7175C83.8342 60.3332 84.2425 60.0281 84.6976 59.8225C85.1528 59.617 85.6445 59.5157 86.1398 59.5255H114.397C115.45 59.5444 116.459 59.9684 117.234 60.717C118.009 61.4656 118.496 62.4868 118.601 63.5869L118.805 65.9583L203.876 65.7579C204.56 65.7726 205.214 66.0545 205.71 66.5487C206.207 67.0428 206.51 67.7136 206.56 68.4299L209.53 120.126C209.53 120.193 209.53 120.24 209.53 120.327Z" fill="white"/>
<path d="M114.391 59.5188C115.444 59.5377 116.453 59.9617 117.228 60.7103C118.003 61.4589 118.489 62.4801 118.595 63.5802L118.798 65.9516L203.87 65.7512C204.553 65.7659 205.207 66.0479 205.704 66.542C206.2 67.0361 206.503 67.7069 206.554 68.4232L209.524 120.12C209.524 120.2 209.524 120.267 209.524 120.334C209.517 120.986 209.266 121.61 208.824 122.069C208.382 122.528 207.786 122.785 207.164 122.785V122.785L76.0211 123.099C75.336 123.089 74.6796 122.809 74.1824 122.313C73.6851 121.818 73.3834 121.145 73.3371 120.427L70.367 68.7238C70.367 68.657 70.367 68.5836 70.367 68.5168C70.3754 67.8617 70.629 67.2365 71.073 66.7765C71.517 66.3164 72.1156 66.0585 72.7393 66.0585V66.0585H82.8199L82.6164 63.5936C82.562 63.0763 82.6133 62.5529 82.7668 62.0581C82.9203 61.5633 83.1725 61.1086 83.5065 60.7242C83.8406 60.3399 84.2488 60.0347 84.704 59.8292C85.1591 59.6236 85.6508 59.5224 86.1462 59.5322H114.404L114.391 59.5188ZM114.404 57.4881H86.1335C85.3679 57.4782 84.6091 57.6385 83.9067 57.9583C83.2043 58.2781 82.5742 58.7503 82.0577 59.3438C81.5412 59.9374 81.1501 60.6389 80.9099 61.4024C80.6696 62.1659 80.5858 62.9741 80.6639 63.774V64.0211H72.7011C71.564 64.021 70.4725 64.4913 69.6631 65.3302C68.8537 66.1691 68.3914 67.3091 68.3763 68.5034V68.8508L71.3465 120.561C71.4234 121.793 71.9405 122.949 72.7944 123.797C73.6482 124.646 74.7757 125.124 75.9511 125.136L207.126 124.822C208.263 124.824 209.354 124.356 210.164 123.518C210.973 122.68 211.436 121.541 211.451 120.347C211.451 120.213 211.451 120.093 211.451 119.966L208.481 68.2896C208.403 67.0588 207.886 65.9039 207.034 65.0548C206.182 64.2057 205.057 63.7246 203.882 63.7072H203.844L120.528 63.9009L120.484 63.3999C120.35 61.7915 119.653 60.2925 118.527 59.193C117.402 58.0934 115.928 57.4717 114.391 57.448L114.404 57.4881Z" fill="#FC8F52"/>
<path d="M106.543 54.6224H77.4139V93.0925H106.543V54.6224Z" fill="#FC8F52"/>
<g opacity="0.2">
<path opacity="0.2" d="M80.8737 54.6224H77.4139V84.4619H78.3615V82.2909H80.9055V84.4619H81.8532V54.6224H80.8737ZM78.3297 70.6544V66.3124H80.8737V70.6544H78.3297ZM80.8737 71.643V75.985H78.3297V71.643H80.8737ZM78.3297 65.3171V60.9751H80.8737V65.3171H78.3297ZM78.3297 59.9731V55.6311H80.8737V59.9731H78.3297ZM78.3297 81.3491V77.0071H80.8737V81.3491H78.3297Z" fill="black"/>
</g>
<g opacity="0.2">
<path opacity="0.2" d="M105.576 54.6224H102.122V84.4619H103.07V82.2909H105.576V84.4619H106.524V54.6224H105.576ZM103.07 70.6544V66.3124H105.576V70.6544H103.07ZM105.576 71.643V75.985H103.096V71.643H105.576ZM103.07 65.3171V60.9751H105.576V65.3171H103.07ZM103.07 59.9731V55.6311H105.576V59.9731H103.07ZM103.07 81.3491V77.0071H105.576V81.3491H103.07Z" fill="black"/>
</g>
<path opacity="0.2" d="M102.148 84.4219L81.8214 84.4619V54.6224H102.148V84.4219Z" fill="white"/>
<path opacity="0.2" d="M100.393 69.933C100.394 71.6814 99.9013 73.391 98.9772 74.8454C98.0531 76.2998 96.739 77.4335 95.2012 78.1033C93.6635 78.773 91.9711 78.9486 90.3383 78.6078C88.7055 78.267 87.2057 77.4251 86.0285 76.1888C84.8514 74.9524 84.0499 73.3771 83.7254 71.6621C83.4009 69.9472 83.5681 68.1697 84.2057 66.5545C84.8434 64.9394 85.9229 63.5592 87.3076 62.5886C88.6923 61.618 90.3199 61.1007 91.9847 61.102C94.2146 61.102 96.3532 62.0324 97.93 63.6885C99.5068 65.3446 100.393 67.5908 100.393 69.933V69.933Z" fill="white"/>
<path d="M89.7205 65.317L96.7038 70.4206L89.7205 75.5308V65.317Z" fill="white"/>
<path d="M96.7038 70.4206L96.1695 70.808L89.7141 66.0919V65.3104L96.7038 70.4206Z" fill="#FC8F52"/>
<path d="M88.5566 91.4225V88.3697L87.132 90.8881H86.6232L85.224 88.4365V91.4225H84.1746V86.3323H85.0968L86.9157 89.4986L88.6965 86.3323H89.6187V91.4225H88.5566Z" fill="white"/>
<path d="M92.5189 89.4252L91.8829 90.1399V91.4225H90.7572V86.3323H91.8702V88.7104L94.0135 86.3323H95.2855L93.2758 88.6035L95.4064 91.4225H94.0962L92.5189 89.4252Z" fill="white"/>
<path d="M100.259 86.3323L98.1602 91.4225H97.0536L94.9611 86.3323H96.1695L97.645 89.9729L99.1396 86.3323H100.259Z" fill="white"/>
<path d="M138.298 63.1928H109.169V101.663H138.298V63.1928Z" fill="#FC8F52"/>
<g opacity="0.2">
<path opacity="0.2" d="M112.629 63.1928H109.169V93.0324H110.117V90.848H112.661V93.019H113.609V63.1928H112.629ZM110.085 79.2248V74.8828H112.629V79.2248H110.085ZM112.629 80.2201V84.5621H110.085V80.2201H112.629ZM110.085 73.8875V69.5455H112.629V73.8875H110.085ZM110.085 68.5435V64.2015H112.629V68.5435H110.085ZM110.085 89.8794V85.504H112.629V89.846L110.085 89.8794Z" fill="black"/>
</g>
<g opacity="0.2">
<path opacity="0.2" d="M137.376 63.1928H133.922V93.0324H134.832V90.848H137.376V93.019H138.324V63.1928H137.376ZM134.87 79.2248V74.8828H137.376V79.2248H134.87ZM137.376 80.2201V84.5621H134.832V80.2201H137.376ZM134.832 73.8608V69.5188H137.376V73.8608H134.832ZM134.832 68.5168V64.1748H137.376V68.5168H134.832ZM134.832 89.8527V85.504H137.376V89.846L134.832 89.8527Z" fill="black"/>
</g>
<path opacity="0.2" d="M133.903 92.999L113.577 93.0324V63.1928H133.903V92.999Z" fill="white"/>
<path opacity="0.2" d="M132.148 78.5101C132.148 80.2583 131.654 81.9672 130.73 83.4207C129.805 84.8742 128.49 86.0069 126.952 86.6756C125.414 87.3443 123.722 87.519 122.09 87.1774C120.458 86.8359 118.958 85.9935 117.782 84.7569C116.605 83.5202 115.804 81.9449 115.48 80.2301C115.156 78.5153 115.324 76.7382 115.962 75.1234C116.6 73.5087 117.679 72.1289 119.064 71.1586C120.448 70.1883 122.076 69.6711 123.74 69.6724C124.845 69.6724 125.939 69.9011 126.959 70.3453C127.98 70.7895 128.907 71.4406 129.688 72.2613C130.469 73.0821 131.088 74.0564 131.51 75.1286C131.932 76.2008 132.149 77.3498 132.148 78.5101V78.5101Z" fill="white"/>
<path d="M121.476 73.8875L128.459 78.9977L121.476 84.1012V73.8875Z" fill="white"/>
<path d="M128.459 78.991L127.931 79.3785L121.476 74.6624V73.8875L128.459 78.991Z" fill="#FC8F52"/>
<path d="M120.795 98.9108H118.544L118.118 99.9996H116.967L119.129 94.9095H120.236L122.405 99.9996H121.228L120.795 98.9108ZM120.446 98.0157L119.676 96.0651L118.932 98.0157H120.446Z" fill="white"/>
<path d="M127.302 94.9095L125.203 99.9996H124.096L122.004 94.9095H123.219L124.688 98.5434L126.189 94.9095H127.302Z" fill="white"/>
<path d="M127.702 94.9095H128.822V99.9996H127.702V94.9095Z" fill="white"/>
<path d="M169.92 48.7106H140.791V87.1807H169.92V48.7106Z" fill="#FC8F52"/>
<g opacity="0.2">
<path opacity="0.2" d="M144.245 48.7106H140.791V78.5501H141.739V76.3791H144.245V78.5501H145.192V48.7106H144.245ZM141.739 64.7426V60.4006H144.245V64.7426H141.739ZM144.245 65.7312V70.0732H141.739V65.7312H144.245ZM141.739 59.4053V55.0633H144.245V59.4053H141.739ZM141.739 54.0613V49.6992H144.245V54.0412L141.739 54.0613ZM141.739 75.4039V71.0619H144.245V75.4039H141.739Z" fill="black"/>
</g>
<g opacity="0.2">
<path opacity="0.2" d="M168.972 48.7106H165.519V78.5501H166.467V76.3791H168.972V78.5501H169.92V48.7106H168.972ZM166.467 64.7426V60.4006H168.972V64.7426H166.467ZM168.972 65.7312V70.0732H166.467V65.7312H168.972ZM166.467 59.4053V55.0633H168.972V59.4053H166.467ZM166.467 54.0613V49.6992H168.972V54.0412L166.467 54.0613ZM166.467 75.4039V71.0619H168.972V75.4039H166.467Z" fill="black"/>
</g>
<path opacity="0.2" d="M165.519 78.5101L145.192 78.5501V48.7106H165.519V78.5101Z" fill="white"/>
<path opacity="0.2" d="M163.764 64.0211C163.764 65.7677 163.27 67.4751 162.347 68.9274C161.423 70.3796 160.11 71.5115 158.573 72.1799C157.037 72.8483 155.346 73.0232 153.715 72.6824C152.084 72.3417 150.586 71.5006 149.41 70.2656C148.235 69.0305 147.434 67.457 147.109 65.744C146.785 64.0309 146.951 62.2553 147.588 60.6417C148.224 59.028 149.302 57.6488 150.684 56.6785C152.067 55.7081 153.693 55.1902 155.356 55.1902C157.586 55.1902 159.724 56.1206 161.301 57.7767C162.878 59.4328 163.764 61.679 163.764 64.0211V64.0211Z" fill="white"/>
<path d="M153.092 59.4053L160.081 64.5088L153.092 69.619V59.4053Z" fill="white"/>
<path d="M160.081 64.5088L159.547 64.8962L153.092 60.1802V59.4053L160.081 64.5088Z" fill="#FC8F52"/>
<path d="M151.928 85.504V82.4446L150.503 84.9629H150.001L148.576 82.5114V85.504H147.552V80.4272H148.481L150.293 83.5868L152.08 80.4272H153.003V85.5174L151.928 85.504Z" fill="white"/>
<path d="M158.364 82.2709C158.364 83.4065 157.55 84.1079 156.259 84.1079H155.248V85.504H154.128V80.4272H156.227C157.518 80.4272 158.364 81.1286 158.364 82.2709ZM157.226 82.2709C157.226 81.7098 156.882 81.3825 156.195 81.3825H155.248V83.1527H156.163C156.85 83.1527 157.194 82.832 157.194 82.2709H157.226Z" fill="white"/>
<path d="M163.115 84.4486H162.326V85.504H161.232V84.4352H158.625V83.6403L160.908 80.4272H162.085L159.967 83.5H161.239V82.5448H162.294V83.5H163.083L163.115 84.4486Z" fill="white"/>
<path d="M201.459 55.3171H172.331V93.7872H201.459V55.3171Z" fill="#FC8F52"/>
<g opacity="0.2">
<path opacity="0.2" d="M175.79 55.3171H172.356V85.1566H173.304V82.9923H175.816V85.1566H176.763V55.3171H175.79ZM173.278 71.3491V67.0071H175.79V71.3491H173.278ZM175.79 72.3444V76.6864H173.278V72.3444H175.79ZM173.278 66.0118V61.6698H175.79V66.0118H173.278ZM173.278 60.6678V56.3124H175.79V60.6544L173.278 60.6678ZM173.278 82.0438V77.7018H175.79V82.0438H173.278Z" fill="black"/>
</g>
<g opacity="0.2">
<path opacity="0.2" d="M200.518 55.3171H197.065V85.1566H198.012V82.9923H200.518V85.1566H201.466V55.3171H200.518ZM198.012 71.3491V67.0071H200.518V71.3491H198.012ZM200.518 72.3444V76.6864H198.012V72.3444H200.518ZM198.012 66.0118V61.6698H200.518V66.0118H198.012ZM198.012 60.6678V56.3124H200.518V60.6544L198.012 60.6678ZM198.012 82.0438V77.7018H200.518V82.0438H198.012Z" fill="black"/>
</g>
<path opacity="0.2" d="M197.065 85.1232L176.738 85.1566V55.3171H197.065V85.1232Z" fill="white"/>
<path opacity="0.2" d="M186.901 79.4653C191.545 79.4653 195.309 75.5115 195.309 70.6343C195.309 65.7571 191.545 61.8034 186.901 61.8034C182.258 61.8034 178.493 65.7571 178.493 70.6343C178.493 75.5115 182.258 79.4653 186.901 79.4653Z" fill="white"/>
<path d="M184.637 66.0118L191.62 71.122L184.637 76.2255V66.0118Z" fill="white"/>
<path d="M191.627 71.122L191.093 71.5094L184.643 66.7933V66.0185L191.627 71.122Z" fill="#FC8F52"/>
<path d="M183.473 92.1239V89.0711L182.049 91.5895H181.54L180.122 89.1379V92.1239H179.066V87.0337H179.988L181.801 90.2001L183.588 87.0337H184.51V92.1239H183.473Z" fill="white"/>
<path d="M185.369 89.5788C185.339 89.0221 185.47 88.4689 185.743 87.9909C186.016 87.5129 186.42 87.1321 186.902 86.8977C187.383 86.6633 187.921 86.5861 188.445 86.6762C188.969 86.7662 189.455 87.0193 189.84 87.4027C190.226 87.7862 190.493 88.2822 190.607 88.8268C190.721 89.3714 190.677 89.9394 190.48 90.4573C190.283 90.9752 189.943 91.4191 189.504 91.7318C189.064 92.0444 188.545 92.2112 188.014 92.2107C187.674 92.2308 187.333 92.1775 187.012 92.0542C186.692 91.9309 186.399 91.7402 186.151 91.4938C185.904 91.2474 185.706 90.9504 185.572 90.6212C185.437 90.2919 185.368 89.9372 185.369 89.5788V89.5788ZM189.534 89.5788C189.528 89.2646 189.434 88.9592 189.263 88.7011C189.092 88.443 188.853 88.2436 188.574 88.1279C188.296 88.0121 187.991 87.9852 187.699 88.0506C187.406 88.1159 187.138 88.2705 186.929 88.4951C186.719 88.7196 186.578 89.0041 186.522 89.3128C186.465 89.6216 186.497 89.9409 186.613 90.2307C186.729 90.5204 186.924 90.7678 187.173 90.9418C187.422 91.1158 187.715 91.2087 188.014 91.2087C188.218 91.2146 188.42 91.1761 188.609 91.0957C188.798 91.0153 188.969 90.8948 189.111 90.7417C189.253 90.5886 189.363 90.4062 189.435 90.2061C189.507 90.006 189.539 89.7924 189.528 89.5788H189.534Z" fill="white"/>
<path d="M196.009 87.0337L193.91 92.1239H192.803L190.717 87.0337H191.926L193.401 90.6677L194.896 87.0337H196.009Z" fill="white"/>
<path d="M148.455 119.084H138.991C138.085 119.065 137.216 118.699 136.549 118.054C135.881 117.41 135.461 116.531 135.366 115.584L135.296 114.696C135.25 114.25 135.295 113.8 135.427 113.374C135.56 112.948 135.777 112.556 136.064 112.225C136.352 111.894 136.703 111.631 137.095 111.454C137.487 111.276 137.91 111.188 138.336 111.195H147.8L148.455 119.084Z" fill="#FC8F52"/>
<path d="M154.198 118.456L148.76 115.624L148.627 114.021L153.594 111.195L154.198 118.456Z" fill="#FC8F52"/>
<path d="M154.917 118.456H154.198L153.594 111.195H154.313L154.917 118.456Z" fill="#FC8F52"/>
<path d="M141.415 107.809C141.451 108.159 141.416 108.513 141.311 108.847C141.207 109.182 141.036 109.489 140.81 109.749C140.583 110.009 140.307 110.215 139.999 110.354C139.691 110.493 139.358 110.561 139.023 110.554C138.311 110.541 137.629 110.255 137.105 109.749C136.581 109.243 136.252 108.552 136.18 107.809C136.143 107.459 136.178 107.104 136.281 106.769C136.384 106.434 136.555 106.127 136.78 105.866C137.006 105.606 137.282 105.399 137.59 105.259C137.897 105.12 138.23 105.05 138.565 105.056C139.279 105.069 139.963 105.356 140.488 105.863C141.013 106.371 141.343 107.063 141.415 107.809V107.809Z" fill="#FC8F52"/>
<path d="M146.655 107.809C146.69 108.158 146.654 108.512 146.55 108.846C146.445 109.18 146.274 109.487 146.048 109.747C145.822 110.006 145.546 110.212 145.238 110.352C144.931 110.491 144.599 110.56 144.264 110.554C143.551 110.542 142.868 110.255 142.343 109.749C141.818 109.244 141.488 108.553 141.415 107.809C141.377 107.458 141.412 107.103 141.516 106.768C141.62 106.432 141.79 106.124 142.017 105.864C142.243 105.603 142.52 105.396 142.828 105.257C143.137 105.118 143.47 105.049 143.806 105.056C144.519 105.07 145.202 105.358 145.727 105.865C146.252 106.372 146.582 107.063 146.655 107.809Z" fill="#FC8F52"/>
<path d="M191.907 135.985C191.566 137.268 191.064 138.497 190.412 139.639C190.692 139.798 191.001 139.891 191.319 139.911C191.637 139.93 191.955 139.876 192.25 139.752L191.907 135.985Z" fill="#A02724"/>
<path d="M205.969 139.859L202.948 143.199L198.814 147.722C199.153 148.247 199.397 148.833 199.532 149.452C199.901 150.788 200.219 151.796 197.421 153.119C197.122 153.247 196.865 153.463 196.679 153.74C196.493 154.017 196.386 154.344 196.371 154.682C196.371 155.517 197.007 156.426 199.768 156.479C202.442 156.468 205.043 155.557 207.19 153.88C208.245 153.092 208.144 152.377 207.482 151.208C205.536 147.982 205.587 143.446 205.969 139.859Z" fill="#FF8B7B"/>
<path d="M190.927 135.764C190.889 136.212 191.042 136.593 191.264 136.606C191.487 136.619 191.69 136.279 191.722 135.831C191.754 135.384 191.608 135.009 191.385 134.989C191.163 134.969 190.959 135.317 190.927 135.764Z" fill="#263238"/>
<path d="M191.302 133.266C191.776 133.202 192.257 133.264 192.701 133.446C193.146 133.628 193.539 133.925 193.846 134.308" stroke="#263238" stroke-linecap="round" stroke-linejoin="round"/>
<path d="M191.875 141.816C192.188 143.011 192.758 144.113 193.541 145.04C194.324 145.966 195.299 146.692 196.39 147.16C197.133 147.484 197.922 147.671 198.725 147.715C199.698 147.772 200.671 147.602 201.574 147.216C202.477 146.83 203.287 146.239 203.946 145.484C206.573 142.551 206.401 139.245 206.573 133.62C206.623 132.305 206.358 130.999 205.8 129.82C205.243 128.642 204.411 127.631 203.383 126.879C202.355 126.127 201.163 125.66 199.918 125.52C198.672 125.38 197.413 125.572 196.257 126.078C191.073 128.41 190.577 136.78 191.875 141.816Z" fill="#FF8B7B"/>
<path opacity="0.2" d="M196.39 147.187C197.133 147.51 197.922 147.698 198.725 147.742L198.814 147.701L198.305 146.659C198.305 146.659 197.993 147.548 196.39 147.187Z" fill="black"/>
<path d="M208.71 137.287C208.137 139.291 207.355 141.396 205.892 142.852C205.352 143.393 200.683 143.894 200.683 143.894C200.461 142.237 197.567 136.907 196.301 135.21C196.123 136.038 195.831 139.612 195.564 140.4C195.036 140.4 194.203 139.545 194.203 139.545C195.059 137.231 195.28 134.71 194.839 132.271L194.654 131.262C194.654 131.476 191.57 132.999 190.069 130.053C184.465 119.038 198.839 120.995 202.827 125.29C203.486 124.98 204.213 124.867 204.93 124.961C205.646 125.055 206.325 125.354 206.891 125.824C208.017 126.787 208.803 128.118 209.123 129.605C209.645 132.158 209.503 134.812 208.71 137.287Z" fill="#263238"/>
<path d="M204.474 122.812C204.102 122.801 203.736 122.912 203.427 123.13C203.118 123.348 202.881 123.662 202.75 124.028C202.591 124.462 202.432 125.51 202.897 125.731C203.322 124.702 203.851 123.723 204.474 122.812V122.812Z" fill="#263238"/>
<path d="M199.882 136.646C199.631 137.891 198.952 138.995 197.974 139.746C196.702 140.694 195.43 139.345 195.468 137.742C195.468 136.312 196.378 134.328 197.802 134.007C199.227 133.687 200.175 135.11 199.882 136.646Z" fill="#FF8B7B"/>
<path d="M174.671 266.793L169.475 265.169L171.052 252.277L177.444 254.668L174.671 266.793Z" fill="#FF8B7B"/>
<path opacity="0.2" d="M178.163 251.074L171.415 248.436L170.404 257.708L176.388 259.471L178.163 251.074Z" fill="black"/>
<path d="M169.036 264.247L174.957 265.931C175.065 265.968 175.157 266.046 175.213 266.149C175.269 266.253 175.287 266.375 175.263 266.492L174.366 272.41C174.349 272.551 174.305 272.687 174.237 272.81C174.168 272.932 174.077 273.039 173.968 273.123C173.859 273.208 173.735 273.268 173.603 273.3C173.472 273.333 173.335 273.337 173.202 273.312C171.154 272.684 170.194 272.257 167.592 271.515C165.99 271.061 162.326 269.966 160.088 269.511C157.849 269.057 158.3 266.325 159.286 266.258C163.738 265.964 166.282 265.41 168.044 264.374C168.346 264.198 168.702 264.153 169.036 264.247V264.247Z" fill="#263238"/>
<path d="M166.27 265.129C166.738 265.231 167.216 265.281 167.694 265.276C167.717 265.279 167.741 265.273 167.761 265.26C167.78 265.246 167.795 265.226 167.802 265.203C167.815 265.182 167.821 265.157 167.821 265.133C167.821 265.108 167.815 265.084 167.802 265.062C167.662 264.895 166.403 263.453 165.703 263.553C165.623 263.562 165.547 263.593 165.482 263.643C165.417 263.694 165.366 263.762 165.335 263.84C165.271 263.955 165.237 264.085 165.237 264.217C165.237 264.35 165.271 264.48 165.335 264.595C165.574 264.886 165.906 265.076 166.27 265.129V265.129ZM167.433 265.009C166.441 264.936 165.748 264.769 165.564 264.441C165.526 264.367 165.509 264.283 165.515 264.199C165.52 264.115 165.548 264.035 165.595 263.967C165.608 263.928 165.631 263.893 165.661 263.866C165.691 263.839 165.728 263.82 165.767 263.813C166.136 263.753 166.912 264.448 167.433 265.009V265.009Z" fill="#FC8F52"/>
<path d="M167.7 265.276H167.758C167.779 265.27 167.798 265.258 167.814 265.242C167.83 265.225 167.841 265.205 167.847 265.183C167.847 265.116 168.349 263.553 167.936 262.878C167.885 262.791 167.815 262.717 167.732 262.663C167.649 262.608 167.556 262.574 167.459 262.564C167.353 262.54 167.242 262.555 167.145 262.606C167.048 262.657 166.97 262.741 166.925 262.845C166.664 263.419 167.185 264.775 167.637 265.236C167.644 265.247 167.654 265.256 167.664 265.263C167.675 265.27 167.688 265.275 167.7 265.276V265.276ZM167.491 262.845C167.589 262.872 167.674 262.939 167.726 263.032C167.898 263.636 167.878 264.284 167.669 264.875C167.27 264.332 167.085 263.648 167.154 262.965C167.154 262.891 167.243 262.811 167.427 262.838L167.491 262.845Z" fill="#FC8F52"/>
<path d="M200.976 196.92C200.976 196.92 171.904 196.82 170.963 213.68C170.041 225.53 169.456 230.38 170.016 256.205L177.756 256.652C177.756 256.652 185.629 228.71 184.567 217.614C193.242 217.614 213.098 218.409 215.979 210.193C217.414 206.021 218.112 201.609 218.04 197.174L200.976 196.92Z" fill="#FC8F52"/>
<g opacity="0.3">
<path opacity="0.3" d="M200.976 196.92C200.976 196.92 171.904 196.82 170.963 213.68C170.041 225.53 169.456 230.38 170.016 256.205L177.756 256.652C177.756 256.652 185.629 228.71 184.567 217.614C193.242 217.614 213.098 218.409 215.979 210.193C217.414 206.021 218.112 201.609 218.04 197.174L200.976 196.92Z" fill="black"/>
</g>
<path d="M179.009 258.229L168.896 256.412L169.062 251.709L179.53 254.154L179.009 258.229Z" fill="#FC8F52"/>
<path d="M154.605 268.483L149.708 266.044L153.136 253.559L159.108 256.94L154.605 268.483Z" fill="#FF8B7B"/>
<path opacity="0.2" d="M160.336 253.506L154.058 249.819L151.705 258.823L157.365 261.522L160.336 253.506Z" fill="black"/>
<path d="M149.409 265.062L155.012 267.681C155.113 267.733 155.192 267.823 155.233 267.933C155.274 268.043 155.275 268.165 155.235 268.275L153.486 273.987C153.448 274.122 153.385 274.248 153.3 274.357C153.215 274.467 153.111 274.557 152.992 274.623C152.874 274.689 152.744 274.729 152.61 274.742C152.476 274.754 152.342 274.738 152.214 274.695C150.306 273.74 149.39 273.165 146.929 272.023C145.409 271.315 141.955 269.645 139.799 268.863C137.643 268.082 138.495 265.423 139.481 265.523C143.901 265.951 146.477 265.804 148.385 265.069C148.547 264.997 148.721 264.96 148.897 264.959C149.072 264.957 149.246 264.993 149.409 265.062V265.062Z" fill="#263238"/>
<path d="M146.547 265.49C146.994 265.665 147.456 265.79 147.927 265.864C147.951 265.871 147.976 265.869 147.999 265.859C148.022 265.85 148.042 265.833 148.054 265.811C148.067 265.789 148.073 265.765 148.073 265.74C148.073 265.716 148.067 265.691 148.054 265.67C147.946 265.483 146.91 263.86 146.204 263.847C146.122 263.841 146.039 263.859 145.966 263.899C145.893 263.939 145.832 263.999 145.79 264.074C145.712 264.176 145.66 264.299 145.64 264.429C145.62 264.559 145.632 264.692 145.676 264.815C145.874 265.148 146.186 265.389 146.547 265.49V265.49ZM147.711 265.563C146.744 265.33 146.083 265.049 145.949 264.702C145.924 264.622 145.92 264.536 145.937 264.454C145.954 264.372 145.991 264.296 146.045 264.234C146.066 264.198 146.094 264.168 146.129 264.146C146.163 264.124 146.202 264.11 146.242 264.107C146.617 264.114 147.279 264.915 147.711 265.563Z" fill="#FC8F52"/>
<path d="M147.934 265.864H147.991C148.013 265.859 148.034 265.85 148.053 265.836C148.071 265.822 148.087 265.804 148.099 265.784C148.099 265.717 148.83 264.254 148.519 263.526C148.481 263.431 148.423 263.347 148.349 263.28C148.275 263.213 148.187 263.164 148.093 263.139C147.991 263.098 147.879 263.094 147.775 263.128C147.672 263.162 147.582 263.231 147.52 263.326C147.183 263.853 147.52 265.276 147.883 265.804C147.893 265.829 147.911 265.851 147.934 265.864V265.864ZM148.08 263.426C148.127 263.446 148.17 263.475 148.206 263.513C148.243 263.551 148.271 263.596 148.29 263.646C148.371 264.273 148.258 264.91 147.965 265.463C147.64 264.853 147.556 264.134 147.73 263.459C147.73 263.386 147.838 263.326 148.023 263.379L148.08 263.426Z" fill="#FC8F52"/>
<path d="M191.837 196.92C191.633 196.92 159.458 193.626 157.302 212.845C153.887 236.372 151.737 256.205 151.737 256.205L158.51 259.732C158.51 259.732 170.314 234.622 170.136 218.877C179.568 216.031 203.972 220.807 206.859 212.598C209.219 205.878 207.94 196.92 207.94 196.92H191.837Z" fill="#FC8F52"/>
<path opacity="0.3" d="M191.837 196.92C191.633 196.92 159.458 193.626 157.302 212.845C153.887 236.372 151.737 256.205 151.737 256.205L158.51 259.732C158.51 259.732 170.314 234.622 170.136 218.877C179.568 216.031 203.972 220.807 206.859 212.598C209.219 205.878 207.94 196.92 207.94 196.92H191.837Z" fill="black"/>
<path d="M159.598 260.754L150.509 256.459L151.241 252.551L160.825 256.024L159.598 260.754Z" fill="#FC8F52"/>
<path d="M207.393 155.176C208.125 157.287 208.697 159.311 209.301 161.409C209.905 163.506 210.351 165.597 210.783 167.735C211.216 169.872 211.559 172.05 211.801 174.295C212.068 176.634 212.1 178.996 211.896 181.342C211.775 182.718 211.464 184.068 210.974 185.35C210.669 186.135 210.263 186.873 209.766 187.541C209.476 187.92 209.15 188.267 208.792 188.576L208.506 188.824C208.354 188.937 208.182 189.064 208.017 189.164C207.744 189.325 207.456 189.457 207.158 189.558C206.719 189.718 206.265 189.825 205.803 189.879C205.438 189.928 205.071 189.95 204.703 189.946C204.079 189.93 203.457 189.874 202.839 189.779C201.742 189.629 200.654 189.406 199.583 189.111C195.589 187.96 191.713 186.393 188.014 184.435L189.197 180.981C193.013 181.83 196.957 182.718 200.677 183.239C201.612 183.326 202.509 183.453 203.355 183.486C203.732 183.5 204.111 183.486 204.487 183.446C204.798 183.446 205.072 183.326 204.983 183.319L204.798 183.393C204.735 183.426 204.676 183.467 204.62 183.513L204.684 183.413C204.778 183.237 204.855 183.051 204.913 182.858C205.109 182.165 205.225 181.45 205.256 180.727C205.326 178.879 205.219 177.029 204.938 175.203C204.684 173.239 204.302 171.315 203.876 169.351C203.45 167.387 202.973 165.424 202.439 163.46C201.905 161.496 201.326 159.518 200.753 157.661L207.393 155.176Z" fill="#FF8B7B"/>
<path d="M190.8 182.083L186.946 179.311L184.523 183.733C184.523 183.733 189.089 186.245 190.196 185.069L190.8 182.083Z" fill="#FF8B7B"/>
<path d="M183.569 179.879L181.457 182.792L184.504 183.7L186.927 179.278L183.569 179.879Z" fill="#FF8B7B"/>
<path d="M167.045 178.189L161.398 177.521L159.776 184.041C159.776 184.041 166.231 184.101 167.249 182.157L167.045 178.189Z" fill="#FF8B7B"/>
<path d="M157.162 179.932L156.195 182.431C156.128 182.604 156.101 182.791 156.119 182.977C156.136 183.163 156.197 183.342 156.296 183.498C156.394 183.653 156.528 183.781 156.684 183.87C156.841 183.959 157.016 184.006 157.194 184.007H159.776L161.398 177.488L157.709 179.298C157.458 179.431 157.263 179.657 157.162 179.932V179.932Z" fill="#FF8B7B"/>
<path d="M216.138 153.834C215.674 152.544 213.531 151.255 212.208 151.255H211.336C209.574 151.279 207.813 151.406 206.064 151.636C202.555 152.043 199.07 152.659 195.627 153.48C194.163 153.891 192.719 154.382 191.302 154.949H191.258C190.572 155.235 189.997 155.755 189.626 156.424C189.255 157.094 189.108 157.876 189.21 158.643C189.751 162.792 190.794 171.228 191.417 179.625C191.907 186.178 191.703 192.685 191.862 197.16H218.046C218.949 191.783 218.803 187.093 218.879 177.387C218.937 171.549 218.034 159.138 216.138 153.834Z" fill="#FC8F52"/>
<path opacity="0.8" d="M216.138 153.834C215.674 152.544 213.531 151.255 212.208 151.255H211.336C209.574 151.279 207.813 151.406 206.064 151.636C202.555 152.043 199.07 152.659 195.627 153.48C194.163 153.891 192.719 154.382 191.302 154.949H191.258C190.572 155.235 189.997 155.755 189.626 156.424C189.255 157.094 189.108 157.876 189.21 158.643C189.751 162.792 190.794 171.228 191.417 179.625C191.907 186.178 191.703 192.685 191.862 197.16H218.046C218.949 191.783 218.803 187.093 218.879 177.387C218.937 171.549 218.034 159.138 216.138 153.834Z" fill="white"/>
<path d="M193.503 155.263C194.012 155.464 194.478 155.769 194.874 156.16C195.27 156.551 195.589 157.021 195.811 157.542C196.034 158.063 196.156 158.625 196.17 159.196C196.184 159.767 196.09 160.335 195.894 160.868C194.025 165.951 190.883 174.014 189.496 176.846C188.968 177.855 188.44 178.85 187.843 179.872C187.537 180.38 187.207 180.881 186.844 181.402C186.641 181.669 186.488 181.91 186.253 182.184L185.916 182.591L185.725 182.818C185.194 183.41 184.541 183.867 183.817 184.154C183.439 184.308 183.053 184.435 182.659 184.535C182.012 184.683 181.355 184.774 180.694 184.809C179.557 184.889 178.416 184.889 177.279 184.809C173.068 184.443 168.904 183.626 164.851 182.371L164.419 177.862C168.419 177.982 172.509 178.122 176.325 177.922C177.221 177.868 178.118 177.768 179.009 177.621C179.367 177.558 179.72 177.464 180.064 177.341C180.176 177.3 180.282 177.246 180.382 177.18C180.414 177.18 180.382 177.134 180.223 177.26C180.166 177.302 180.113 177.349 180.064 177.401L180.122 177.321L180.274 177.107C180.376 176.98 180.49 176.773 180.605 176.606C180.828 176.252 181.056 175.864 181.279 175.45C181.718 174.635 182.138 173.74 182.551 172.832C183.378 171.015 184.128 169.098 184.86 167.167C185.375 165.791 186.895 161.623 188.18 157.902C188.364 157.362 188.649 156.867 189.017 156.444C189.386 156.021 189.83 155.679 190.326 155.438C190.821 155.198 191.357 155.063 191.903 155.042C192.448 155.021 192.992 155.115 193.503 155.317V155.263Z" fill="#FC8F52"/>
<path opacity="0.2" d="M190.864 173.012C191.061 175.484 190.991 174.682 191.207 177.274C197.599 166.9 195.487 160.053 195.487 160.053L190.864 173.012Z" fill="black"/>
<path opacity="0.8" d="M193.503 155.263C194.012 155.464 194.478 155.769 194.874 156.16C195.27 156.551 195.589 157.021 195.811 157.542C196.034 158.063 196.156 158.625 196.17 159.196C196.184 159.767 196.09 160.335 195.894 160.868C194.025 165.951 190.883 174.014 189.496 176.846C188.968 177.855 188.44 178.85 187.843 179.872C187.537 180.38 187.207 180.881 186.844 181.402C186.641 181.669 186.488 181.91 186.253 182.184L185.916 182.591L185.725 182.818C185.194 183.41 184.541 183.867 183.817 184.154C183.439 184.308 183.053 184.435 182.659 184.535C182.012 184.683 181.355 184.774 180.694 184.809C179.557 184.889 178.416 184.889 177.279 184.809C173.068 184.443 168.904 183.626 164.851 182.371L164.419 177.862C168.419 177.982 172.509 178.122 176.325 177.922C177.221 177.868 178.118 177.768 179.009 177.621C179.367 177.558 179.72 177.464 180.064 177.341C180.176 177.3 180.282 177.246 180.382 177.18C180.414 177.18 180.382 177.134 180.223 177.26C180.166 177.302 180.113 177.349 180.064 177.401L180.122 177.321L180.274 177.107C180.376 176.98 180.49 176.773 180.605 176.606C180.828 176.252 181.056 175.864 181.279 175.45C181.718 174.635 182.138 173.74 182.551 172.832C183.378 171.015 184.128 169.098 184.86 167.167C185.375 165.791 186.895 161.623 188.18 157.902C188.364 157.362 188.649 156.867 189.017 156.444C189.386 156.021 189.83 155.679 190.326 155.438C190.821 155.198 191.357 155.063 191.903 155.042C192.448 155.021 192.992 155.115 193.503 155.317V155.263Z" fill="white"/>
<path d="M184.911 273.974C184.911 274.528 184.754 275.071 184.46 275.532C184.167 275.994 183.75 276.353 183.262 276.566C182.774 276.778 182.236 276.833 181.718 276.725C181.2 276.617 180.724 276.35 180.351 275.957C179.977 275.565 179.723 275.065 179.62 274.521C179.516 273.977 179.569 273.412 179.772 272.9C179.974 272.387 180.316 271.949 180.755 271.641C181.195 271.332 181.711 271.168 182.239 271.168C182.948 271.168 183.627 271.464 184.128 271.99C184.629 272.516 184.911 273.229 184.911 273.974Z" fill="#263238"/>
<path d="M224.12 273.974C224.12 274.528 224.277 275.071 224.57 275.532C224.864 275.994 225.281 276.353 225.769 276.566C226.257 276.778 226.794 276.833 227.312 276.725C227.831 276.617 228.306 276.35 228.68 275.957C229.054 275.565 229.308 275.065 229.411 274.521C229.514 273.977 229.461 273.412 229.259 272.9C229.057 272.387 228.715 271.949 228.275 271.641C227.836 271.332 227.32 271.168 226.791 271.168C226.083 271.168 225.403 271.464 224.902 271.99C224.401 272.516 224.12 273.229 224.12 273.974Z" fill="#263238"/>
<path d="M200.976 273.078C200.976 273.633 201.133 274.176 201.426 274.637C201.72 275.098 202.137 275.458 202.625 275.67C203.113 275.883 203.65 275.938 204.168 275.83C204.687 275.722 205.162 275.455 205.536 275.062C205.91 274.67 206.164 274.17 206.267 273.626C206.37 273.081 206.317 272.517 206.115 272.005C205.913 271.492 205.571 271.054 205.131 270.746C204.692 270.437 204.176 270.273 203.647 270.273C202.939 270.273 202.259 270.568 201.758 271.095C201.257 271.621 200.976 272.334 200.976 273.078V273.078Z" fill="#263238"/>
<path d="M232.611 270.206C232.548 270.522 232.383 270.806 232.142 271.007C231.902 271.208 231.602 271.315 231.294 271.308L203.45 270.907L177.374 271.522C177.037 271.562 176.698 271.459 176.433 271.237C176.167 271.015 175.997 270.691 175.959 270.336C175.921 269.982 176.019 269.626 176.23 269.348C176.442 269.069 176.75 268.89 177.088 268.85L191.328 265.944C192.796 265.652 194.286 265.504 195.78 265.503H211.082C212.576 265.504 214.066 265.652 215.534 265.944L231.536 268.616C231.708 268.641 231.874 268.702 232.023 268.797C232.172 268.892 232.301 269.017 232.401 269.166C232.502 269.315 232.573 269.485 232.609 269.663C232.645 269.842 232.645 270.027 232.611 270.206V270.206Z" fill="#263238"/>
<path d="M208.182 241.081H198.712V269.712H208.182V241.081Z" fill="#263238"/>
<path d="M206.827 222.945H200.073V241.228H206.827V222.945Z" fill="#263238"/>
<path opacity="0.2" d="M200.073 226.332L206.827 228.122V222.945H200.073V226.332Z" fill="black"/>
<path d="M178.551 196.82H175.123V212.197H178.551V196.82Z" fill="#263238"/>
<path d="M178.551 196.82H175.123V212.197H178.551V196.82Z" fill="#263238"/>
<path d="M201.3 162.324C201.237 162.741 201.205 163.164 201.205 163.587V222.912H195.754V163.613C195.751 163.567 195.751 163.52 195.754 163.473L201.3 162.324Z" fill="#263238"/>
<path d="M233.037 222.872V222.938H232.14C232.44 222.935 232.739 222.913 233.037 222.872V222.872Z" fill="#263238"/>
<path d="M238.5 161.97L238.099 154.923C237.984 152.933 237.199 151.051 235.886 149.612L231.606 144.936L229.405 133.193C229.241 132.305 228.789 131.505 228.125 130.93C227.461 130.355 226.628 130.04 225.767 130.04H215.903C215.125 130.042 214.367 130.301 213.737 130.78C213.107 131.26 212.636 131.936 212.392 132.712L208.265 145.343L200.391 150.434C199.396 151.077 198.548 151.94 197.904 152.963C197.26 153.987 196.837 155.146 196.664 156.359L195.646 163.553H195.761L201.3 162.431C201.237 162.848 201.205 163.271 201.205 163.693V223.018H232.14C232.448 223.017 232.757 222.994 233.062 222.952V222.952C234.577 222.72 235.962 221.923 236.962 220.705C237.962 219.488 238.51 217.933 238.506 216.325V163.092C238.505 162.71 238.482 162.329 238.436 161.95L238.5 161.97ZM212.367 157.494L202.827 158.45L202.407 158.49L203.431 153.907L209.823 150.667L211.947 149.592L212.367 150.667L212.437 150.848L212.825 151.836L212.367 157.494ZM231.262 157.608L230.06 157.294C230.016 156.9 229.965 156.499 229.92 156.105C229.653 153.907 229.412 151.836 229.412 151.836L229.507 151.115L229.704 149.592L234.252 153.907L234.315 154.929L234.55 158.49L231.262 157.608Z" fill="#263238"/>
<path d="M201.205 210.013V222.938H165.271C164.489 222.944 163.72 222.731 163.043 222.322C162.365 221.913 161.804 221.322 161.415 220.609C161.027 219.897 160.826 219.089 160.833 218.268C160.84 217.447 161.055 216.643 161.455 215.938C162.466 214.133 163.909 212.636 165.641 211.597C167.372 210.558 169.332 210.012 171.326 210.013H201.205Z" fill="#263238"/>
<path d="M188.491 201.516C180.939 198.743 172.715 198.743 165.163 201.516C164.406 201.815 163.571 201.813 162.815 201.51C162.06 201.207 161.436 200.625 161.061 199.872V199.872C160.361 198.316 161.296 196.305 163.204 195.604C172.02 192.364 181.622 192.364 190.438 195.604C192.346 196.272 193.28 198.316 192.581 199.872C192.205 200.621 191.583 201.2 190.831 201.502C190.078 201.805 189.247 201.809 188.491 201.516Z" fill="#263238"/>
<path opacity="0.4" d="M188.491 201.516C180.939 198.743 172.715 198.743 165.163 201.516C164.406 201.815 163.571 201.813 162.815 201.51C162.06 201.207 161.436 200.625 161.061 199.872V199.872C160.361 198.316 161.296 196.305 163.204 195.604C172.02 192.364 181.622 192.364 190.438 195.604C192.346 196.272 193.28 198.316 192.581 199.872C192.205 200.621 191.583 201.2 190.831 201.502C190.078 201.805 189.247 201.809 188.491 201.516Z" fill="#263238"/>
</svg>
